<?xml version="1.0" standalone="no"?>
<!DOCTYPE svg PUBLIC "-//W3C//DTD SVG 1.1//EN" "http://www.w3.org/Graphics/SVG/1.1/DTD/svg11.dtd" >
<svg xmlns="http://www.w3.org/2000/svg" xmlns:xlink="http://www.w3.org/1999/xlink" version="1.1">
<metadata>
Created by FontForge 20160111 at Wed Apr  5 08:07:01 2017
 By root
Copyright (c) 1997, 2001, Berthold LLC. All rights reserved. Akzidenz-Grotesk is a trademark of Berthold Types Limited.
</metadata>
<defs>
<font id="AkzidenzGroteskBQ-LigCnd" horiz-adv-x="313" >
  <font-face 
    font-family="Akzidenz-Grotesk BQ"
    font-weight="300"
    font-stretch="condensed"
    units-per-em="1000"
    panose-1="0 0 0 0 0 0 0 0 0 0"
    ascent="800"
    descent="-200"
    x-height="503"
    cap-height="706"
    bbox="-54 -250 858 880"
    underline-thickness="43"
    underline-position="-176"
    stemh="42"
    stemv="43"
    unicode-range="U+0020-2122"
  />
<missing-glyph horiz-adv-x="500" 
 />
    <glyph glyph-name=".notdef" horiz-adv-x="500" 
 />
    <glyph glyph-name="space" unicode=" " horiz-adv-x="187" 
 />
    <glyph glyph-name="exclam" unicode="!" horiz-adv-x="187" 
d="M140 323l-11 -136h-28l-9 143v376h48v-383zM137 0h-45v90h45v-90z" />
    <glyph glyph-name="quotedbl" unicode="&#x22;" horiz-adv-x="272" 
d="M233 740l-19 -288h-21l-18 288h58zM97 740l-18 -288h-21l-19 288h58z" />
    <glyph glyph-name="numbersign" unicode="#" horiz-adv-x="514" 
d="M493 415h-140l-9 -112h137v-40h-141l-21 -263h-43l23 263h-100l-22 -263h-44l22 263h-135v40h138l10 112h-132v41h136l21 250h44l-21 -250h99l21 250h42l-21 -250h136v-41zM311 415h-99l-9 -112h99z" />
    <glyph glyph-name="dollar" unicode="$" horiz-adv-x="358" 
d="M260 526v21c0 38 -3 55 -9 72c-11 28 -36 43 -74 43c-58 0 -81 -29 -81 -100c0 -26 2 -44 9 -61c4 -11 10 -22 17 -32c17 -22 34 -40 88 -90c91 -85 114 -128 114 -211c0 -104 -42 -158 -130 -167v-72h-31v72c-46 4 -76 19 -98 47c-27 34 -35 71 -35 163v13h44v-38
c0 -42 5 -67 13 -88c14 -35 47 -54 92 -54c67 0 99 38 99 119c0 68 -15 97 -89 167c-73 70 -87 85 -106 109c-24 31 -34 65 -34 126c0 87 38 134 113 140v50h31v-50c41 -5 64 -15 83 -39c22 -26 29 -56 29 -126v-14h-45z" />
    <glyph glyph-name="percent" unicode="%" horiz-adv-x="583" 
d="M558 101c0 -18 0 -29 -4 -45c-6 -23 -27 -61 -87 -61c-57 0 -78 33 -86 56c-6 18 -7 33 -7 51v232c0 10 0 19 1 28c2 13 5 50 40 69c18 10 35 12 54 12c27 0 44 -7 54 -13c37 -23 35 -63 35 -100v-229zM483 774l-367 -844l-25 11l367 845zM204 366c0 -19 -1 -33 -7 -51
c-19 -52 -67 -55 -84 -55c-19 0 -71 3 -88 62c-5 16 -5 28 -5 45v232c0 2 0 35 6 54c7 23 31 56 88 55c7 0 35 0 56 -14c36 -23 34 -63 34 -99v-229zM521 101v233c0 11 -1 29 -4 39c-11 31 -40 32 -49 32c-6 0 -32 0 -46 -20c-8 -11 -9 -19 -9 -44v-235c0 -23 1 -49 22 -64
c13 -9 27 -10 32 -10c6 0 18 0 30 8c21 14 24 38 24 61zM167 366v233c0 13 7 72 -53 71c-58 0 -55 -45 -55 -64v-235c0 -26 1 -54 28 -68c9 -5 16 -6 26 -6c21 0 34 11 39 16c17 19 15 46 15 53z" />
    <glyph glyph-name="ampersand" unicode="&#x26;" horiz-adv-x="437" 
d="M419 -2c-72 0 -91 8 -123 32c-1 -1 -13 -11 -21 -16c-28 -16 -63 -23 -95 -23c-15 0 -64 0 -102 33c-19 17 -46 47 -46 108c0 83 45 138 96 199c-6 17 -35 91 -35 161c0 13 0 55 27 87c3 4 11 14 25 21c7 4 22 10 44 10c53 0 85 -34 85 -86c0 -11 -2 -30 -10 -54
c-14 -39 -38 -75 -87 -143c20 -46 57 -127 124 -233c15 22 30 46 40 100c7 39 9 71 7 148h44c0 -81 -1 -175 -43 -248c-4 -8 -10 -16 -21 -32c31 -23 53 -26 91 -23v-41zM231 522c0 26 -15 50 -44 50c-31 0 -53 -27 -52 -84c0 -17 2 -44 13 -83c3 -10 7 -21 12 -31
c21 29 43 58 57 92c7 15 14 38 14 56zM269 61c-11 17 -23 34 -34 52c-15 25 -28 51 -42 77c-8 16 -17 31 -25 47s-15 32 -22 47c-9 -11 -17 -21 -25 -33c-35 -50 -44 -85 -44 -114c0 -57 35 -86 55 -95c11 -5 26 -10 53 -10c47 0 69 16 84 29z" />
    <glyph glyph-name="quoteright" unicode="&#x2019;" horiz-adv-x="146" 
d="M96 615c0 -42 -6 -70 -46 -90v22c25 17 25 40 25 68h-24v91h45v-91z" />
    <glyph glyph-name="parenleft" unicode="(" horiz-adv-x="229" 
d="M192 -140c-20 22 -40 43 -57 68c-67 98 -106 244 -106 363s39 254 109 352c16 22 34 43 52 64v-56c-11 -16 -22 -32 -32 -48c-53 -88 -84 -217 -84 -318c0 -126 39 -268 118 -367v-58z" />
    <glyph glyph-name="parenright" unicode=")" horiz-adv-x="229" 
d="M200 278c0 -115 -37 -248 -103 -343c-18 -26 -39 -49 -59 -73v56c77 97 117 243 117 365c0 93 -24 205 -66 288c-14 29 -32 54 -52 79v58c21 -21 39 -43 56 -67c69 -99 107 -243 107 -363z" />
    <glyph glyph-name="asterisk" unicode="*" horiz-adv-x="305" 
d="M278 608l-94 -35l57 -80l-31 -24l-59 79l-52 -79l-32 24l53 81l-91 27l12 38l91 -25v96h40v-98l93 32z" />
    <glyph glyph-name="plus" unicode="+" horiz-adv-x="558" 
d="M474 276h-172v-184h-45v184h-173v41h173v184h45v-184h172v-41z" />
    <glyph glyph-name="comma" unicode="," horiz-adv-x="146" 
d="M96 0c0 -42 -5 -70 -45 -90v22c25 17 24 41 24 68h-24v91h45v-91z" />
    <glyph glyph-name="hyphen" unicode="-" horiz-adv-x="248" 
d="M212 271h-177v42h177v-42z" />
    <glyph glyph-name="period" unicode="." horiz-adv-x="146" 
d="M96 0h-44v90h44v-90z" />
    <glyph glyph-name="slash" unicode="/" 
d="M279 706l-199 -706h-46l200 706h45z" />
    <glyph glyph-name="zero" unicode="0" horiz-adv-x="354" 
d="M320 150c0 -28 -2 -40 -6 -53c-18 -64 -72 -97 -137 -97c-59 0 -110 29 -131 87c-6 18 -10 33 -10 72v393c0 8 -1 39 7 66c26 89 116 91 140 91c63 0 97 -28 112 -49c23 -32 25 -80 25 -118v-392zM274 150v410c0 65 -23 104 -94 104c-15 0 -74 -1 -92 -57
c-4 -14 -6 -26 -6 -55v-383c0 -43 1 -82 41 -109c16 -11 34 -16 54 -16c21 0 72 7 91 63c3 10 6 21 6 43z" />
    <glyph glyph-name="one" unicode="1" horiz-adv-x="354" 
d="M216 0h-50v615c-7 -6 -14 -12 -22 -17c-40 -29 -74 -31 -94 -34v39c64 9 98 48 112 75c5 9 6 15 9 24h45v-702z" />
    <glyph glyph-name="two" unicode="2" horiz-adv-x="354" 
d="M305 0h-264v52c3 9 5 18 9 27c9 21 29 56 61 101c42 61 92 123 120 193c16 40 24 71 24 155v17c0 37 -2 80 -33 105c-8 7 -21 15 -45 15c-40 0 -58 -25 -65 -39c-11 -21 -14 -50 -14 -100v-48h-44v67c0 37 2 59 6 75c7 30 34 87 117 87c13 0 44 -1 73 -22
c47 -35 50 -90 50 -141v-39c0 -35 -1 -63 -9 -98c-17 -80 -74 -155 -121 -220c-21 -29 -43 -57 -60 -88c-7 -12 -15 -28 -27 -57h222v-42z" />
    <glyph glyph-name="three" unicode="3" horiz-adv-x="354" 
d="M313 151c0 -8 0 -39 -7 -65c-25 -88 -105 -94 -134 -94c-48 0 -91 20 -115 63c-20 36 -20 78 -23 160h45c0 -22 1 -43 2 -65c2 -36 5 -78 39 -101c10 -7 28 -15 56 -15c14 0 27 3 32 5c26 9 47 33 55 58c5 14 7 22 7 48v39c0 25 -1 50 -4 75c-6 45 -26 61 -43 71
c-26 16 -47 22 -105 25l1 46c15 0 58 -1 95 28c4 4 19 16 27 32c5 10 9 20 9 43v59c0 19 -1 28 -2 38c-9 59 -54 62 -76 62c-8 0 -26 1 -44 -11c-28 -18 -30 -50 -30 -80v-74h-43v77c0 36 3 51 10 69c18 46 66 62 110 62c69 0 100 -39 110 -64c7 -18 10 -31 10 -67v-67
c0 -4 0 -26 -5 -43c-17 -63 -80 -80 -96 -86c7 -1 15 -3 22 -5c19 -5 61 -18 83 -67c10 -22 14 -38 14 -81v-75z" />
    <glyph glyph-name="four" unicode="4" horiz-adv-x="354" 
d="M347 225h-84v-225h-46v225h-198v46l182 430h62v-434h84v-42zM217 267v369l-153 -369h153z" />
    <glyph glyph-name="five" unicode="5" horiz-adv-x="354" 
d="M302 185c0 -29 -1 -76 -9 -105c-9 -32 -36 -83 -119 -84c-11 0 -49 1 -79 21c-48 32 -49 84 -49 134v71h44v-55c0 -41 2 -68 9 -85c6 -17 25 -43 70 -43c33 0 50 10 60 20c26 24 28 61 28 127v146c0 29 -2 60 -24 82c-19 20 -43 20 -53 20c-11 0 -47 -1 -68 -31
c-14 -20 -15 -42 -15 -65h-37v365h232v-43h-187v-210c13 9 39 27 80 27c17 0 58 -3 88 -41c27 -34 29 -77 29 -118v-133z" />
    <glyph glyph-name="six" unicode="6" horiz-adv-x="354" 
d="M321 518l-46 1s0 52 -4 80c-1 10 -6 42 -37 58c-7 4 -23 10 -44 10c-9 0 -32 -1 -54 -14c-46 -28 -42 -83 -42 -98v-169c11 10 17 14 23 18c24 16 54 25 83 25c57 -1 87 -32 99 -50c18 -28 21 -59 21 -124v-130c-1 -7 -1 -30 -9 -51c-26 -73 -108 -78 -128 -78
c-17 0 -73 1 -108 46c-27 34 -27 77 -27 118v404c0 35 4 50 10 67c13 34 47 81 135 81c12 0 67 -2 99 -39c29 -32 29 -83 29 -122v-33zM274 137v147c0 31 -3 64 -29 85c-18 15 -41 16 -48 16c-29 0 -60 -13 -79 -33c-22 -23 -25 -52 -25 -82v-104c0 -39 0 -86 37 -111
c10 -6 25 -14 52 -14c53 0 77 30 84 49c4 10 8 24 8 47z" />
    <glyph glyph-name="seven" unicode="7" horiz-adv-x="354" 
d="M318 659c-20 -44 -39 -88 -56 -133c-37 -98 -75 -242 -88 -346c-4 -33 -6 -67 -6 -100v-80h-49v47c0 80 2 145 39 297c40 165 79 242 113 315h-224v44h271v-44z" />
    <glyph glyph-name="eight" unicode="8" horiz-adv-x="354" 
d="M315 128c0 -18 -1 -30 -6 -48c-23 -83 -108 -87 -130 -87c-41 0 -87 14 -113 49c-24 32 -25 70 -25 107v121c0 16 2 33 5 48c13 55 52 69 72 77c-13 6 -25 13 -36 22c-33 28 -31 66 -31 81v98c0 4 0 32 8 53c11 29 46 64 119 64c11 0 57 1 90 -24c6 -4 19 -15 27 -33
c7 -17 11 -36 11 -73v-82c0 -3 0 -28 -5 -44c-10 -37 -36 -49 -68 -61c25 -10 44 -19 60 -43c20 -29 22 -62 22 -96v-129zM260 505v72c0 28 -1 40 -6 53c-8 22 -31 41 -79 41c-8 0 -25 0 -43 -9c-31 -15 -35 -39 -35 -69v-97c0 -12 1 -24 5 -34c13 -31 45 -45 76 -45
c34 0 67 17 78 52c3 9 4 18 4 36zM268 141v124c0 8 0 15 -1 23c-2 27 -11 51 -34 68c-9 7 -26 17 -53 17c-24 0 -41 -7 -48 -11c-40 -19 -45 -54 -45 -93v-113c0 -62 11 -89 40 -106c16 -9 34 -14 52 -14c26 1 43 10 51 15c34 20 38 54 38 90z" />
    <glyph glyph-name="nine" unicode="9" horiz-adv-x="354" 
d="M308 147c0 -35 -3 -52 -9 -69c-26 -80 -111 -85 -133 -85s-100 3 -124 77c-9 26 -9 51 -9 77v43h46v-55c0 -17 2 -26 4 -34c5 -24 22 -62 82 -62c19 0 36 3 53 12c39 20 44 53 44 92v180c-9 -9 -15 -14 -25 -20c-12 -8 -42 -23 -81 -23c-12 0 -64 2 -94 38
c-25 29 -28 63 -28 98v125c0 58 1 115 56 150c14 9 41 22 83 22c61 0 94 -26 109 -46c27 -35 26 -79 26 -120v-400zM263 455v95c0 20 -2 55 -10 74c-9 19 -33 44 -83 44c-13 0 -67 -4 -84 -54c-5 -16 -5 -32 -5 -37v-171c0 -6 1 -20 6 -35c11 -30 37 -47 68 -47
c68 0 94 46 102 70c4 13 6 30 6 61z" />
    <glyph glyph-name="colon" unicode=":" horiz-adv-x="187" 
d="M136 364h-44v91h44v-91zM136 0h-44v90h44v-90z" />
    <glyph glyph-name="semicolon" unicode=";" horiz-adv-x="187" 
d="M137 364h-46v91h46v-91zM136 0c0 -42 -5 -70 -45 -90v22c26 18 25 39 25 68h-25v91h45v-91z" />
    <glyph glyph-name="less" unicode="&#x3c;" horiz-adv-x="559" 
d="M446 76l-357 194v45l357 195v-49l-312 -166l312 -167v-52z" />
    <glyph glyph-name="equal" unicode="=" horiz-adv-x="559" 
d="M474 347h-389v42h389v-42zM474 203h-389v42h389v-42z" />
    <glyph glyph-name="greater" unicode="&#x3e;" horiz-adv-x="559" 
d="M470 271l-357 -195v48l312 167l-312 167v51l357 -193v-45z" />
    <glyph glyph-name="question" unicode="?" horiz-adv-x="354" 
d="M318 516c0 -65 -7 -96 -43 -149c-15 -22 -33 -44 -46 -67c-9 -17 -11 -29 -11 -48v-78h-48v83c0 22 -2 37 21 71l24 35c8 11 15 22 23 33c17 26 33 49 33 112c0 17 0 34 -1 51c-1 37 -5 90 -45 110c-11 5 -20 7 -33 7c-8 0 -23 -1 -39 -13c-35 -27 -36 -81 -36 -120
c0 -20 1 -41 2 -61h-47c-1 53 -8 131 19 179c12 21 41 57 103 57c47 0 86 -22 106 -65c15 -32 18 -66 18 -137zM218 0h-48v90h48v-90z" />
    <glyph glyph-name="at" unicode="@" horiz-adv-x="878" 
d="M815 425c0 -65 -16 -136 -44 -195c-45 -95 -117 -157 -183 -157c-46 0 -78 33 -78 81c0 5 1 8 1 17c-43 -65 -92 -96 -149 -96c-78 0 -127 60 -127 156c0 149 97 283 205 283c74 0 108 -64 119 -101l18 78h46l-32 -144c-12 -52 -20 -91 -25 -117c-3 -19 -5 -43 -5 -58
c0 -37 15 -56 45 -56c18 0 34 7 53 24c72 64 117 175 117 287c0 153 -101 250 -260 250c-229 0 -417 -201 -417 -443c0 -190 137 -320 338 -320c25 0 51 2 77 7c59 10 106 27 161 59c44 26 62 39 105 80l23 -26c-103 -103 -228 -156 -365 -156c-225 0 -381 145 -381 354
c0 266 207 481 463 481c181 0 295 -112 295 -288zM541 357c0 70 -40 120 -96 120c-86 0 -162 -116 -162 -247c0 -71 37 -117 94 -117c112 0 164 152 164 244z" />
    <glyph glyph-name="A" unicode="A" horiz-adv-x="375" 
d="M349 0h-52l-36 215h-148l-37 -215h-52l129 710h68zM252 261l-55 328c-4 22 -7 44 -10 66c-2 -21 -5 -41 -8 -61l-58 -333h131z" />
    <glyph glyph-name="B" unicode="B" horiz-adv-x="375" 
d="M333 131c0 -38 -4 -73 -35 -101c-37 -32 -84 -30 -98 -30h-141v706h134c11 0 61 4 91 -30c20 -23 24 -53 24 -81v-105c0 -5 1 -30 -5 -48c-16 -50 -63 -56 -78 -59c10 -1 49 -5 75 -27c32 -27 33 -67 33 -104v-121zM260 501v85c0 20 -2 33 -5 41c-13 36 -54 37 -85 37
h-62v-262h48c27 0 34 2 48 6c60 18 56 76 56 93zM284 153v100c0 17 -1 33 -6 48c-19 52 -72 58 -119 58h-50v-316h83c35 0 51 6 65 16c23 18 27 42 27 94z" />
    <glyph glyph-name="C" unicode="C" horiz-adv-x="375" 
d="M334 134c0 -35 -3 -49 -9 -66c-13 -37 -48 -79 -135 -79c-84 0 -118 56 -128 86c-7 21 -10 41 -10 85v383c0 43 -1 81 26 117c28 39 69 53 114 53c53 0 104 -21 124 -73c10 -25 10 -56 10 -63v-99h-48v47c0 53 -1 82 -13 105c-3 6 -11 17 -26 26c-9 5 -22 12 -46 12
c-9 0 -30 -1 -51 -14c-45 -27 -42 -85 -42 -97v-348c0 -38 -3 -98 18 -133c7 -13 17 -22 29 -29c21 -11 42 -12 51 -12c22 0 36 6 44 10c44 23 42 72 42 85v113h50v-109z" />
    <glyph glyph-name="D" unicode="D" horiz-adv-x="396" 
d="M342 260c0 -21 0 -41 -1 -63c-4 -60 -14 -114 -62 -155c-11 -9 -35 -28 -70 -36c-23 -6 -51 -6 -56 -6h-93v706h61c64 0 128 -5 173 -58c39 -47 48 -111 48 -231v-157zM294 256v162c0 50 -1 134 -25 179c-21 39 -59 53 -73 57c-20 5 -44 7 -50 7h-37v-617h40
c32 0 59 5 87 24c46 33 58 85 58 188z" />
    <glyph glyph-name="E" unicode="E" horiz-adv-x="333" 
d="M309 662h-202v-272h166v-43h-166v-303h201v-44h-249v706h250v-44z" />
    <glyph glyph-name="F" unicode="F" 
d="M308 662h-201v-272h177v-43h-177v-347h-48v706h249v-44z" />
    <glyph glyph-name="G" unicode="G" horiz-adv-x="396" 
d="M343 0h-37v56c-9 -13 -12 -17 -18 -23c-13 -14 -46 -43 -100 -43c-42 0 -83 18 -106 54c-22 33 -27 64 -27 138v371c0 41 3 89 34 120c10 11 18 16 23 19c18 12 43 22 90 22c88 0 120 -49 131 -85c5 -19 5 -48 5 -52v-98h-47v73c0 22 -1 54 -10 75c-9 20 -31 45 -82 45
c-10 0 -38 0 -62 -19c-38 -32 -34 -79 -34 -123v-334c0 -58 1 -89 14 -115c7 -15 30 -48 77 -48c21 0 38 8 54 21c47 39 46 93 46 112v113h-104v43h153v-322z" />
    <glyph glyph-name="H" unicode="H" horiz-adv-x="396" 
d="M338 0h-49v349h-182v-349h-48v706h48v-314h182v314h49v-706z" />
    <glyph glyph-name="I" unicode="I" horiz-adv-x="167" 
d="M109 0h-51v706h51v-706z" />
    <glyph glyph-name="J" unicode="J" horiz-adv-x="333" 
d="M276 129c0 -9 0 -18 -1 -27c-1 -17 -5 -63 -48 -92c-28 -19 -59 -20 -70 -20c-10 0 -35 1 -59 14c-58 31 -56 102 -56 117v102h48v-92c0 -32 0 -63 29 -84c16 -12 33 -13 40 -13c6 0 23 1 38 11c33 21 31 60 31 71v590h48v-577z" />
    <glyph glyph-name="K" unicode="K" horiz-adv-x="354" 
d="M340 0h-53l-129 366l-52 -98v-268h-48v706h49v-346l176 346h55l-150 -281z" />
    <glyph glyph-name="L" unicode="L" 
d="M291 0h-233v706h49v-662h184v-44z" />
    <glyph glyph-name="M" unicode="M" horiz-adv-x="500" 
d="M445 0h-47l-1 653l-125 -653h-45l-125 653l1 -653h-49l6 706h72l117 -609l117 609h72z" />
    <glyph glyph-name="N" unicode="N" horiz-adv-x="396" 
d="M337 0h-75l-164 667l4 -667h-47v706h72l169 -679l-7 679h48v-706z" />
    <glyph glyph-name="O" unicode="O" horiz-adv-x="396" 
d="M340 144c0 -33 -3 -63 -21 -92c-15 -26 -52 -61 -124 -61c-14 0 -75 1 -110 43c-28 35 -31 75 -31 117v398c0 8 0 48 11 80c20 59 75 86 135 85c32 0 64 -7 90 -26c50 -38 50 -99 50 -154v-390zM293 163v344c0 59 -3 92 -17 119c-4 8 -12 23 -32 33c-7 4 -24 11 -47 11
c-28 0 -46 -10 -54 -15c-43 -28 -41 -84 -41 -96v-389c0 -40 2 -62 8 -80c7 -19 32 -55 88 -55c20 0 39 5 55 17c38 27 40 70 40 111z" />
    <glyph glyph-name="P" unicode="P" horiz-adv-x="375" 
d="M333 469c0 -38 -1 -70 -28 -102c-36 -43 -95 -45 -126 -45h-72v-322h-49v706h110c43 0 91 2 127 -28c38 -31 38 -77 38 -129v-80zM285 469v61c0 63 -1 97 -29 118c-18 14 -34 17 -75 17h-75v-302h80c27 0 55 3 76 25c27 27 23 75 23 81z" />
    <glyph glyph-name="Q" unicode="Q" horiz-adv-x="396" 
d="M370 -67l-29 -31l-107 95c-20 -4 -30 -5 -40 -5c-29 0 -64 9 -87 26c-9 7 -19 18 -26 29c-26 39 -27 89 -27 182v319c0 39 2 53 8 73c11 37 43 95 139 95c20 0 94 -4 124 -70c11 -23 15 -40 15 -86v-391c0 -47 -4 -89 -35 -127c-7 -9 -11 -13 -27 -25zM292 168v393
c0 17 -1 35 -7 51c-13 37 -48 59 -87 59c-103 0 -96 -109 -96 -128v-336c0 -68 3 -104 20 -132c15 -26 44 -39 73 -39c9 0 33 1 55 18c38 29 42 72 42 114z" />
    <glyph glyph-name="R" unicode="R" horiz-adv-x="375" 
d="M366 0h-52l-129 344h-77v-344h-49v706h137c36 0 70 -2 100 -25c41 -32 39 -84 39 -98v-110c0 -2 0 -29 -4 -45c-13 -49 -52 -66 -68 -73c-8 -3 -11 -5 -26 -8zM283 461v109c0 30 -2 67 -32 84c-17 9 -33 10 -51 10h-92v-278h90c5 0 25 0 42 6c44 15 43 55 43 69z" />
    <glyph glyph-name="S" unicode="S" horiz-adv-x="375" 
d="M334 156c0 -59 -11 -94 -25 -115c-17 -25 -52 -52 -120 -52c-27 0 -59 5 -81 17c-5 3 -13 8 -23 17c-16 14 -27 30 -35 51c-7 20 -8 36 -8 57v100h49v-57c0 -15 -1 -29 0 -44c2 -34 13 -98 104 -98c8 0 30 0 51 13c25 15 39 45 39 103c0 55 -12 80 -25 101
c-26 40 -73 85 -80 91c-41 40 -66 68 -81 89c-17 23 -40 63 -40 131c0 4 0 33 4 53c7 40 30 103 129 103c11 0 51 0 83 -20c49 -32 49 -92 49 -143v-51h-48v63c0 25 0 33 -3 47c-4 24 -19 62 -80 62c-7 0 -30 0 -50 -12c-22 -14 -35 -42 -35 -94c0 -67 18 -94 61 -143
c15 -18 31 -35 48 -53c25 -25 50 -49 72 -77c35 -44 45 -83 45 -139z" />
    <glyph glyph-name="T" unicode="T" 
d="M305 662h-125v-662h-50v662h-123v44h298v-44z" />
    <glyph glyph-name="U" unicode="U" horiz-adv-x="396" 
d="M338 140c0 -24 -2 -49 -10 -71c-29 -78 -110 -81 -132 -81c-11 0 -56 1 -89 26c-9 6 -16 14 -22 23c-30 40 -28 84 -28 130v539h48v-547c0 -46 4 -70 16 -89c11 -17 34 -36 78 -36c7 0 37 0 58 17c33 25 32 63 32 136v519h49v-566z" />
    <glyph glyph-name="V" unicode="V" horiz-adv-x="354" 
d="M326 706l-128 -706h-51l-120 706h51l95 -602l103 602h50z" />
    <glyph glyph-name="W" unicode="W" horiz-adv-x="562" 
d="M542 706l-115 -706h-53l-91 607l-91 -607h-51l-120 706h50l95 -600l91 600h52l92 -600l92 600h49z" />
    <glyph glyph-name="X" unicode="X" horiz-adv-x="354" 
d="M330 0h-51l-102 335l-103 -335h-50l128 389l-99 317h51l76 -268l82 268h51l-107 -318z" />
    <glyph glyph-name="Y" unicode="Y" horiz-adv-x="354" 
d="M345 706l-144 -394v-312h-48v312l-139 394h52l113 -332l112 332h54z" />
    <glyph glyph-name="Z" unicode="Z" horiz-adv-x="354" 
d="M318 673l-236 -629h235v-44h-290v32l234 631h-192v43h249v-33z" />
    <glyph glyph-name="bracketleft" unicode="[" horiz-adv-x="229" 
d="M195 -141h-142v847h142v-36h-99v-773h99v-38z" />
    <glyph glyph-name="backslash" unicode="\" 
d="M281 0h-47l-200 706h44z" />
    <glyph glyph-name="bracketright" unicode="]" horiz-adv-x="229" 
d="M176 -141h-141v38h98v773h-101v36h144v-847z" />
    <glyph glyph-name="asciicircum" unicode="^" horiz-adv-x="559" 
d="M483 357h-51l-154 304l-151 -304h-52l180 349h47z" />
    <glyph glyph-name="underscore" unicode="_" horiz-adv-x="500" 
d="M510 -198h-520v43h520v-43z" />
    <glyph glyph-name="quoteleft" unicode="&#x2018;" horiz-adv-x="146" 
d="M99 525h-45v91c0 42 6 70 45 90v-22c-25 -18 -24 -40 -24 -68h24v-91z" />
    <glyph glyph-name="a" unicode="a" 
d="M296 0c-32 0 -47 3 -59 14c-7 6 -10 10 -14 25c-14 -11 -46 -39 -97 -39c-70 0 -98 56 -98 118c0 39 10 64 18 79c29 53 84 73 132 100c20 11 27 15 44 29v57c0 26 1 56 -24 73c-12 9 -25 9 -40 9c-37 0 -50 -16 -57 -32c-11 -24 -10 -59 -9 -85h-43c0 55 0 77 12 103
c25 56 87 55 103 55c21 0 40 -4 59 -14c39 -22 43 -57 43 -97v-338c2 -18 16 -17 30 -17v-40zM223 87v192c-10 -8 -21 -15 -32 -21c-17 -10 -34 -18 -50 -27c-46 -28 -70 -59 -70 -114c0 -16 3 -77 66 -77c39 0 62 21 86 47z" />
    <glyph glyph-name="b" unicode="b" horiz-adv-x="333" 
d="M284 116c0 -26 -4 -48 -19 -71c-10 -16 -36 -48 -87 -48c-11 0 -30 0 -52 14c-4 3 -11 8 -19 16c-4 5 -7 10 -10 15v-42h-45v706h42v-246c2 2 10 12 17 19c27 28 63 30 76 30c8 0 26 0 47 -11c46 -23 50 -78 50 -122v-260zM242 131v248c0 9 2 90 -67 90
c-36 0 -64 -21 -75 -55c-3 -11 -5 -16 -5 -36v-243c0 -33 9 -50 17 -63c20 -31 49 -37 63 -37c11 0 35 4 51 28c14 20 16 44 16 68z" />
    <glyph glyph-name="c" unicode="c" 
d="M275 127c0 -31 -1 -42 -6 -57c-16 -53 -64 -73 -116 -73c-11 0 -39 1 -66 19c-45 30 -47 80 -47 128v232c0 22 1 36 8 57c22 67 88 70 108 70c116 0 115 -104 115 -135v-44h-42v39c0 22 -2 34 -4 44c-8 35 -30 59 -68 59c-47 0 -63 -32 -68 -48c-6 -17 -6 -42 -6 -45
v-216c0 -2 -1 -48 7 -73c7 -20 24 -47 72 -47c44 0 60 28 65 44c4 12 5 25 5 38v73h43v-65z" />
    <glyph glyph-name="d" unicode="d" horiz-adv-x="333" 
d="M280 0h-40v53c-4 -9 -10 -16 -16 -23c-10 -12 -33 -34 -76 -34c-13 0 -54 3 -79 39c-19 27 -21 58 -21 88v253c0 14 -3 76 44 109c9 7 28 18 57 18c54 0 77 -33 89 -47v250h42v-706zM238 107v267c-2 9 -6 57 -41 79c-12 7 -24 10 -38 10c-32 0 -56 -22 -65 -51
c-4 -12 -4 -25 -4 -37v-244c0 -31 1 -60 26 -82c12 -10 27 -15 43 -15c43 0 72 35 79 73z" />
    <glyph glyph-name="e" unicode="e" 
d="M273 118c0 -30 -3 -53 -22 -78c-31 -41 -78 -41 -94 -41c-14 0 -30 2 -43 6s-49 21 -63 61c-6 15 -8 27 -8 56v264c0 8 0 26 6 47c9 29 34 73 108 73c54 0 82 -24 96 -44c21 -32 20 -77 20 -114v-101h-188v-124c0 -4 0 -21 4 -36c6 -20 21 -49 71 -49c6 0 32 1 50 18
c3 3 10 10 14 22c8 22 7 48 7 97h42v-57zM230 283v92c0 44 -11 66 -28 79c-7 5 -22 14 -44 14c-7 0 -27 -1 -44 -14c-27 -21 -29 -52 -29 -83v-88h145z" />
    <glyph glyph-name="f" unicode="f" horiz-adv-x="187" 
d="M191 665c-9 1 -59 8 -71 -36c-2 -9 -2 -17 -2 -26v-100h62v-40h-64v-463h-42v463h-57v40h60v119c0 32 12 58 41 73c9 5 24 11 48 11c9 0 17 -1 25 -2v-39z" />
    <glyph glyph-name="g" unicode="g" horiz-adv-x="333" 
d="M281 -24c0 -9 2 -33 -7 -59c-18 -52 -65 -75 -117 -75c-37 0 -83 14 -100 51c-7 14 -9 27 -11 56h43c1 -4 0 -22 7 -37c15 -29 56 -29 62 -29c10 0 57 3 74 42c4 9 6 18 6 37v83c-12 -12 -38 -44 -88 -44c-9 0 -33 2 -54 15c-45 28 -45 78 -45 124v254c0 19 1 33 7 52
c20 59 79 62 96 62c50 0 74 -32 84 -46v41h43v-527zM239 117v282c-7 38 -36 71 -78 70c-5 0 -23 -1 -37 -10c-31 -21 -31 -57 -31 -89v-232c0 -30 0 -64 26 -84c17 -12 33 -12 41 -12c14 0 46 6 66 40c5 9 8 16 13 35z" />
    <glyph glyph-name="h" unicode="h" horiz-adv-x="333" 
d="M286 0h-43v373c0 36 -1 79 -44 91c-3 1 -13 3 -22 3c-42 0 -65 -31 -71 -42c-6 -10 -9 -22 -9 -25v-400h-43v706h43l1 -242c8 9 22 27 51 38c17 6 33 7 39 7c18 0 29 -4 36 -6c16 -6 45 -19 57 -61c5 -16 5 -27 5 -43v-399z" />
    <glyph glyph-name="i" unicode="i" horiz-adv-x="146" 
d="M94 562h-43v78h43v-78zM93 0h-42v503h42v-503z" />
    <glyph glyph-name="j" unicode="j" horiz-adv-x="167" 
d="M112 561h-42v78h42v-78zM112 -31c0 -18 4 -66 -37 -102c-3 -3 -18 -13 -32 -20c-7 -3 -18 -7 -36 -10v43c17 4 26 7 39 20c26 26 24 59 24 92v511h42v-534z" />
    <glyph glyph-name="k" unicode="k" 
d="M300 0h-47l-110 265l-48 -78v-187h-43v706h42v-439l145 236h49l-117 -192z" />
    <glyph glyph-name="l" unicode="l" horiz-adv-x="146" 
d="M94 0h-42v706h42v-706z" />
    <glyph glyph-name="m" unicode="m" horiz-adv-x="521" 
d="M471 0h-43v360c0 56 0 85 -28 101c-5 3 -18 8 -35 8c-28 -1 -50 -12 -66 -33c-10 -14 -13 -22 -16 -29v-407h-43v397c0 2 0 20 -4 31c-8 27 -33 42 -60 42c-33 0 -54 -19 -61 -26c-9 -9 -11 -12 -20 -29v-415h-42v503h43v-42c7 9 13 14 16 17c10 9 40 31 78 31
c58 -1 77 -42 86 -60c11 16 40 61 101 61c16 0 61 -5 82 -50c12 -25 12 -51 12 -104v-356z" />
    <glyph glyph-name="n" unicode="n" horiz-adv-x="333" 
d="M285 0h-42v403c-1 4 -1 18 -5 31c-5 13 -20 39 -57 38c-29 0 -55 -15 -71 -38c-5 -7 -7 -11 -13 -25v-409h-42v503h42v-48c8 13 14 19 19 24c27 27 60 30 74 30c41 -1 78 -21 90 -64c4 -14 5 -27 5 -41v-404z" />
    <glyph glyph-name="o" unicode="o" 
d="M274 142c0 -23 -1 -45 -7 -65c-21 -73 -90 -79 -112 -79c-43 0 -90 19 -107 62c-8 19 -9 41 -9 61v264c0 30 2 51 21 76c14 20 44 45 100 45c31 0 61 -7 84 -29c10 -10 18 -24 23 -37c7 -20 7 -38 7 -58v-240zM231 126v252c0 29 -3 56 -29 74c-8 6 -21 12 -42 12
c-8 0 -30 0 -48 -14c-30 -22 -30 -53 -30 -85v-243c0 -5 0 -20 3 -33c9 -34 36 -50 70 -50c45 0 62 26 69 43c4 10 7 21 7 44z" />
    <glyph glyph-name="p" unicode="p" horiz-adv-x="333" 
d="M285 113c0 -8 -1 -28 -8 -49c-14 -42 -50 -67 -94 -67c-12 0 -40 2 -66 23c-9 7 -9 7 -20 21v-204h-43v666h43v-44c5 6 9 12 15 18c30 27 62 31 78 31c21 0 40 -6 56 -19c40 -32 39 -85 39 -132v-244zM242 135v256c0 2 -1 18 -3 28c-8 31 -31 50 -62 50
c-43 -1 -65 -31 -71 -42c-6 -10 -8 -18 -9 -23v-310c4 -13 6 -16 10 -22c15 -22 41 -35 68 -35c6 0 22 1 37 10c30 19 30 58 30 88z" />
    <glyph glyph-name="q" unicode="q" horiz-adv-x="333" 
d="M278 -163h-42v209c-21 -34 -50 -49 -91 -49c-15 0 -50 3 -75 37c-16 22 -21 40 -21 91v247c0 10 0 20 1 31c1 12 4 51 34 80c18 18 43 26 69 26c27 0 52 -8 70 -28c8 -8 11 -15 14 -19v41h41v-666zM237 125v240c-1 10 0 65 -40 92c-15 10 -31 12 -38 12
c-11 0 -30 -2 -48 -22c-20 -24 -20 -51 -20 -80v-204c0 -46 0 -69 9 -90c15 -33 44 -38 57 -38c35 0 62 25 73 55c4 13 5 22 7 35z" />
    <glyph glyph-name="r" unicode="r" horiz-adv-x="208" 
d="M199 459c-13 -4 -28 -8 -39 -15c-41 -24 -61 -79 -65 -89v-355h-42v503h41v-88c11 25 19 34 30 47c18 19 35 34 75 54v-57z" />
    <glyph glyph-name="s" unicode="s" horiz-adv-x="292" 
d="M265 123c0 -69 -28 -98 -57 -112c-11 -5 -30 -13 -60 -13c-25 0 -51 5 -73 18c-3 2 -14 10 -22 18c-3 4 -6 8 -10 17c-10 20 -15 39 -15 83v43h42v-29c0 -24 -1 -58 14 -81c7 -11 16 -16 20 -18c19 -10 36 -10 44 -10c6 0 21 -1 36 6c31 13 38 49 38 78
c0 57 -25 75 -66 109c-35 28 -59 51 -72 64c-14 16 -37 46 -37 101c0 38 8 108 106 108c107 0 105 -86 105 -121v-34h-43v36c0 29 -3 63 -35 75c-11 4 -25 4 -28 4c-42 0 -62 -20 -62 -64c0 -29 2 -46 21 -68c11 -14 39 -40 75 -70c15 -12 30 -24 44 -38
c15 -16 35 -47 35 -102z" />
    <glyph glyph-name="t" unicode="t" horiz-adv-x="187" 
d="M181 0c-55 -4 -88 -4 -107 16c-11 13 -12 25 -12 41v406h-53v40h53v130h43v-130h76v-40h-76v-396c0 -29 29 -29 38 -29c13 0 25 1 38 2v-40z" />
    <glyph glyph-name="u" unicode="u" horiz-adv-x="333" 
d="M279 0h-43v47c-4 -5 -7 -10 -16 -19c-20 -19 -47 -31 -75 -31c-29 0 -58 13 -75 37c-18 24 -20 53 -20 81v388h42v-372c0 -31 3 -74 38 -91c5 -3 14 -6 28 -6c12 0 42 4 61 31c7 10 13 23 17 34v404h43v-503z" />
    <glyph glyph-name="v" unicode="v" horiz-adv-x="271" 
d="M254 503l-96 -503h-49l-95 503h44l76 -437l74 437h46z" />
    <glyph glyph-name="w" unicode="w" horiz-adv-x="437" 
d="M425 503l-97 -503h-43l-66 411l-72 -411h-44l-89 503h43l69 -431l76 431h35l68 -431l76 431h44z" />
    <glyph glyph-name="x" unicode="x" 
d="M277 0h-47l-85 226l-86 -226h-47l109 262l-100 241h46l78 -198l80 198h46l-101 -236z" />
    <glyph glyph-name="y" unicode="y" horiz-adv-x="292" 
d="M280 503l-129 -560c-7 -29 -14 -53 -35 -75c-31 -32 -73 -32 -107 -32l1 42c16 -2 69 -9 93 40c5 10 7 18 9 28l13 58l-110 499h43l88 -418l89 418h45z" />
    <glyph glyph-name="z" unicode="z" horiz-adv-x="292" 
d="M260 468l-175 -426h174v-42h-223v38l173 423h-159v42h210v-35z" />
    <glyph glyph-name="braceleft" unicode="{" horiz-adv-x="354" 
d="M277 -140c-231 20 -71 341 -172 398c-8 4 -18 8 -28 9v33c14 3 23 4 35 13c29 21 30 89 30 120v88c0 94 23 178 135 185v-31c-56 -14 -81 -36 -89 -96c-10 -64 11 -220 -29 -269c-10 -12 -20 -19 -35 -25v-3c17 -7 28 -16 38 -31c38 -53 13 -202 26 -269
c11 -56 35 -78 89 -90v-32z" />
    <glyph glyph-name="bar" unicode="|" horiz-adv-x="229" 
d="M136 -250h-43v998h43v-998z" />
    <glyph glyph-name="braceright" unicode="}" horiz-adv-x="354" 
d="M277 267c-11 -2 -26 -6 -34 -12c-30 -20 -33 -90 -33 -121c0 -112 20 -262 -133 -274v32c82 16 93 77 93 149v41c0 43 -3 129 19 166c10 16 22 27 41 34v3c-14 5 -25 14 -34 25c-42 47 -18 211 -30 274c-11 57 -34 77 -89 91v31c148 -8 133 -148 133 -256
c0 -34 0 -116 32 -138c9 -6 23 -10 35 -12v-33z" />
    <glyph glyph-name="asciitilde" unicode="~" horiz-adv-x="568" 
d="M501 315c-23 -28 -34 -38 -55 -51c-22 -14 -44 -20 -67 -20c-25 0 -47 5 -93 26l-26 12c-35 16 -57 22 -78 22c-28 0 -48 -12 -77 -47l-6 -6l-33 26c23 28 27 32 42 44c21 18 47 27 78 27c23 0 46 -5 76 -18l58 -25c34 -15 45 -18 61 -18c29 0 51 14 87 55z" />
    <glyph glyph-name="exclamdown" unicode="&#xa1;" horiz-adv-x="187" 
d="M92 618h-45v88h45v-88zM97 0h-49v385l9 136h26l14 -146v-375z" />
    <glyph glyph-name="cent" unicode="&#xa2;" 
d="M275 127c0 -23 6 -118 -102 -129v-69h-29v68c-8 1 -36 2 -61 22c-35 27 -43 61 -43 125v232c0 93 46 118 98 126v62h29v-61c88 -9 104 -68 104 -135v-44h-42v38c0 25 0 64 -27 88c-15 13 -31 16 -45 16c-78 0 -74 -86 -74 -93v-224c0 -50 3 -112 79 -112
c72 0 70 68 70 82v73h43v-65z" />
    <glyph glyph-name="sterling" unicode="&#xa3;" horiz-adv-x="399" 
d="M376 7c-36 -8 -67 -11 -97 -11c-13 0 -5 1 -42 3l-88 5c-27 2 -33 2 -46 2c-21 0 -42 -1 -73 -6v49c27 5 49 11 68 19c59 25 90 75 90 144c0 23 -4 43 -11 61c-6 15 -12 24 -28 46h-113v37h89c-29 50 -34 80 -34 179c0 87 14 129 52 156c20 14 47 22 78 22
c53 0 90 -23 107 -65c6 -15 10 -30 12 -45c2 -18 3 -37 3 -58v-59h-46v14c0 75 -1 94 -7 119c-8 35 -32 52 -73 52c-36 0 -59 -14 -70 -41c-8 -19 -10 -41 -10 -92c0 -72 3 -105 15 -135c6 -15 11 -23 27 -47h121v-37h-97c24 -36 33 -64 33 -104c0 -74 -34 -130 -101 -166
c20 -1 34 -2 44 -3c42 -3 80 -7 95 -7s36 2 51 3c17 2 27 4 51 9v-44z" />
    <glyph glyph-name="yen" unicode="&#xa5;" horiz-adv-x="354" 
d="M345 706l-109 -298h86v-43h-101l-16 -43v-17h117v-43h-121v-262h-48v262h-121v43h118v17l-15 43h-103v43h87l-105 298h52l114 -333l118 333h47z" />
    <glyph glyph-name="florin" unicode="&#x192;" horiz-adv-x="283" 
d="M282 712l-6 -42c-11 3 -17 4 -26 4c-11 0 -20 -2 -29 -5c-9 -4 -17 -10 -22 -17c-8 -13 -10 -21 -15 -59l-14 -100h69l-6 -41h-71l-65 -487c-7 -49 -16 -71 -39 -89c-19 -14 -45 -22 -74 -22c-9 0 -16 1 -30 2l6 40c11 -1 16 -2 22 -2c14 0 26 3 36 8c20 11 29 29 35 74
l63 476h-64l6 41h66l13 98c7 52 13 70 29 91c18 22 47 33 85 33c10 0 16 -1 31 -3z" />
    <glyph glyph-name="section" unicode="&#xa7;" horiz-adv-x="375" 
d="M343 284c0 -48 -19 -83 -48 -119c29 -29 33 -63 33 -102c0 -96 -33 -158 -141 -158c-112 0 -142 56 -142 156v53h45v-54c0 -43 -2 -76 38 -101c16 -10 38 -14 57 -14c76 0 98 39 98 107c0 67 -10 75 -68 109c-66 39 -170 78 -170 169c0 49 25 87 64 114
c-41 33 -53 65 -53 117c0 100 40 154 142 154c45 0 96 -14 118 -57c10 -20 11 -40 11 -62v-81h-44v73c0 61 -27 84 -87 84c-75 0 -96 -43 -96 -111c0 -48 19 -70 56 -95c73 -49 187 -75 187 -182zM299 264c0 80 -49 96 -109 130c-19 11 -37 21 -55 33
c-33 -17 -47 -54 -47 -89c0 -19 5 -36 17 -51c24 -30 129 -84 166 -105c20 25 28 50 28 82z" />
    <glyph glyph-name="currency" unicode="&#xa4;" horiz-adv-x="619" 
d="M562 102l-35 -35l-66 74c-51 -42 -93 -58 -153 -58c-57 0 -102 17 -150 57l-68 -70l-34 36l69 71c-37 47 -55 102 -55 163s17 112 54 162l-68 74l36 33l66 -71c46 39 95 58 153 58c56 0 103 -18 150 -57l68 70l33 -35l-67 -72c35 -48 54 -103 54 -164
c0 -59 -17 -108 -55 -161zM499 339c0 124 -80 215 -189 215c-108 0 -191 -93 -191 -214c0 -123 83 -215 194 -215c106 0 186 92 186 214z" />
    <glyph glyph-name="quotesingle" unicode="'" horiz-adv-x="137" 
d="M97 740l-18 -288h-21l-19 288h58z" />
    <glyph glyph-name="quotedblleft" unicode="&#x201c;" horiz-adv-x="250" 
d="M197 525h-45v91c0 42 6 71 45 91v-22c-25 -19 -24 -40 -24 -69h24v-91zM88 525h-45v91c0 42 5 71 45 91v-22c-25 -18 -24 -41 -24 -69h24v-91z" />
    <glyph glyph-name="guillemotleft" unicode="&#xab;" horiz-adv-x="375" 
d="M352 393l-122 -100l117 -100h-56l-123 100l125 100h59zM213 393l-126 -99l122 -101h-60l-122 100l125 100h61z" />
    <glyph glyph-name="guilsinglleft" unicode="&#x2039;" horiz-adv-x="250" 
d="M219 393l-122 -100l117 -100h-56l-123 100l124 100h60z" />
    <glyph glyph-name="guilsinglright" unicode="&#x203a;" horiz-adv-x="250" 
d="M215 293l-126 -102h-62l129 101l-122 99h60z" />
    <glyph glyph-name="endash" unicode="&#x2013;" horiz-adv-x="355" 
d="M319 271h-284v42h284v-42z" />
    <glyph glyph-name="dagger" unicode="&#x2020;" 
d="M306 454h-124v-454h-47v454h-123v46h123v206h47v-206h124v-46z" />
    <glyph glyph-name="daggerdbl" unicode="&#x2021;" 
d="M303 170h-124v-170h-43v170h-125v43h125v279h-125v44h125v170h43v-170h124v-44h-124v-279h124v-43z" />
    <glyph glyph-name="periodcentered" unicode="&#xb7;" horiz-adv-x="146" 
d="M94 244h-44v90h44v-90z" />
    <glyph glyph-name="paragraph" unicode="&#xb6;" horiz-adv-x="627" 
d="M495 664h-33v-831h-44v831h-135v-831h-45v505c-92 12 -145 78 -145 178c0 83 42 149 113 176c26 10 52 14 96 14h193v-42z" />
    <glyph glyph-name="bullet" unicode="&#x2022;" horiz-adv-x="333" 
d="M238 455l-1 -199h-142v199h143z" />
    <glyph glyph-name="quotesinglbase" unicode="&#x201a;" horiz-adv-x="146" 
d="M96 0c0 -43 -6 -70 -46 -90v22c25 17 25 40 25 68h-24v91h45v-91z" />
    <glyph glyph-name="quotedblbase" unicode="&#x201e;" horiz-adv-x="250" 
d="M201 0c0 -42 -5 -70 -45 -90v22c25 17 25 40 25 68h-25v91h45v-91zM93 0c0 -43 -6 -70 -46 -90v22c26 18 25 39 25 68h-24v91h45v-91z" />
    <glyph glyph-name="quotedblright" unicode="&#x201d;" horiz-adv-x="250" 
d="M201 615c0 -42 -5 -70 -45 -90v22c25 17 25 40 25 68h-25v91h45v-91zM93 615c0 -42 -6 -70 -46 -90v22c25 17 25 40 25 68h-24v91h45v-91z" />
    <glyph glyph-name="guillemotright" unicode="&#xbb;" horiz-adv-x="375" 
d="M348 293l-126 -102h-63l129 101l-122 99h61zM205 293l-124 -102h-61l124 102l-116 98h55z" />
    <glyph glyph-name="ellipsis" unicode="&#x2026;" horiz-adv-x="1000" 
d="M858 0h-51v65h51v-65zM526 0h-52v65h52v-65zM193 0h-52v65h52v-65z" />
    <glyph glyph-name="perthousand" unicode="&#x2030;" horiz-adv-x="812" 
d="M787 101c0 -19 3 -106 -90 -106c-95 0 -94 87 -94 107v232c0 26 -3 109 96 109c101 0 88 -94 88 -113v-229zM558 101c0 -19 2 -106 -90 -106c-94 0 -94 86 -94 107v232c0 27 -3 109 96 109c102 0 88 -94 88 -113v-229zM483 774l-367 -844l-25 11l367 845zM204 366
c0 -19 2 -106 -90 -106c-95 0 -94 87 -94 107v232c0 26 -4 109 96 109c101 0 88 -94 88 -113v-229zM750 101v233c0 9 10 72 -53 71c-46 -1 -55 -25 -55 -64v-235c0 -4 -7 -74 54 -74c57 0 54 64 54 69zM521 101v233c0 35 -3 72 -54 71c-44 -1 -54 -25 -54 -64v-235
c0 -4 -7 -74 54 -74c57 0 54 64 54 69zM167 366v233c0 9 9 72 -54 71c-45 -1 -54 -25 -54 -64v-235c0 -4 -7 -74 54 -74c57 0 54 64 54 69z" />
    <glyph glyph-name="questiondown" unicode="&#xbf;" horiz-adv-x="354" 
d="M184 616h-47v90h47v-90zM282 225c2 -53 8 -131 -19 -179c-12 -21 -41 -57 -103 -57c-47 0 -86 22 -106 65c-15 32 -18 66 -18 137c0 66 7 97 45 151c14 20 29 40 42 61c13 23 13 41 14 52v78h47v-85c0 -30 -5 -45 -21 -69l-24 -35c-8 -11 -16 -23 -23 -34
c-17 -25 -33 -49 -33 -111c0 -26 1 -52 3 -77c5 -51 23 -75 45 -85c13 -6 26 -6 31 -6c8 0 23 1 39 13c35 27 36 81 36 120c0 20 -1 41 -2 61h47z" />
    <glyph glyph-name="grave" unicode="`" horiz-adv-x="229" 
d="M207 569h-32l-153 109h97z" />
    <glyph glyph-name="acute" unicode="&#xb4;" horiz-adv-x="229" 
d="M204 676l-143 -109h-36l84 109h95z" />
    <glyph glyph-name="circumflex" unicode="&#x2c6;" horiz-adv-x="229" 
d="M215 568h-40l-58 69l-61 -69h-42l77 109h50z" />
    <glyph glyph-name="tilde" unicode="&#x2dc;" horiz-adv-x="229" 
d="M225 641c-5 -8 -10 -15 -16 -23c-15 -20 -30 -39 -58 -39c-14 0 -33 10 -63 20c-2 1 -14 5 -24 5c-20 0 -31 -12 -44 -26l-16 13c18 26 39 55 74 55c15 0 28 -4 42 -10c12 -5 28 -14 42 -14c7 0 12 1 18 5c10 5 15 12 28 27z" />
    <glyph glyph-name="macron" unicode="&#xaf;" horiz-adv-x="229" 
d="M209 585h-189v42h189v-42z" />
    <glyph glyph-name="dieresis" unicode="&#xa8;" horiz-adv-x="229" 
d="M188 585h-48v77h48v-77zM89 585h-48v77h48v-77z" />
    <glyph glyph-name="cedilla" unicode="&#xb8;" horiz-adv-x="229" 
d="M195 -98c-1 -21 -16 -62 -71 -62c-35 0 -61 14 -90 30l19 23c16 -9 35 -20 54 -20c29 1 36 23 36 33c0 4 -1 12 -6 19c-14 19 -45 22 -49 23l5 78h33l-3 -51c25 -7 46 -16 61 -39c7 -10 11 -21 11 -34z" />
    <glyph glyph-name="emdash" unicode="&#x2014;" horiz-adv-x="492" 
d="M456 274h-421v42h421v-42z" />
    <glyph glyph-name="AE" unicode="&#xc6;" horiz-adv-x="500" 
d="M480 0h-225v306h-108l-75 -306h-51l181 706h261v-43h-159v-273h146v-44h-146v-302h176v-44zM255 347v316h-18l-80 -316h98z" />
    <glyph glyph-name="ordfeminine" unicode="&#xaa;" horiz-adv-x="187" 
d="M176 421c-4 0 -8 -1 -12 -1c-21 0 -30 8 -37 18c-9 -6 -28 -18 -51 -18c-42 0 -60 38 -60 70c0 62 41 79 70 95c21 12 20 10 41 25v26c0 22 0 47 -33 47s-35 -26 -35 -66h-31v20c0 14 -1 75 67 76c19 0 35 -5 41 -10c27 -20 24 -45 24 -67v-173c0 -7 3 -14 16 -14v-28z
M127 474v98c-60 -27 -77 -45 -77 -80c0 -28 16 -40 33 -40c20 -1 36 15 44 22z" />
    <glyph glyph-name="Oslash" unicode="&#xd8;" horiz-adv-x="396" 
d="M376 704l-41 -94c5 -27 5 -37 5 -51v-405c0 -33 -3 -45 -7 -62c-18 -68 -71 -100 -138 -100c-63 0 -86 24 -106 46l-28 -67l-26 11l36 85c-11 22 -17 35 -17 80v356c0 30 -1 59 2 88c2 16 9 62 47 95c27 23 62 33 98 33c52 0 83 -23 97 -38c12 -12 19 -24 22 -30l28 66z
M290 581c-1 4 -2 22 -7 36c-17 53 -69 57 -86 57c-25 0 -42 -8 -51 -14c-41 -26 -44 -73 -44 -117v-405zM292 162v345l-180 -415c3 -7 5 -14 9 -20c11 -17 32 -35 76 -35c25 0 54 8 70 27c23 26 25 66 25 98z" />
    <glyph glyph-name="OE" unicode="&#x152;" horiz-adv-x="542" 
d="M523 0h-231v40c-8 -10 -10 -13 -19 -20c-15 -12 -44 -30 -91 -30c-38 0 -66 14 -78 22c-57 38 -54 109 -54 126v407c0 59 5 111 57 146c16 11 40 23 84 23c57 0 82 -23 100 -40v32h231v-43h-184v-276h163v-42h-162v-302h184v-43zM292 141v377c0 51 -1 120 -58 145
c-8 3 -23 9 -45 9c-64 -1 -92 -44 -92 -103v-406c0 -41 -1 -81 33 -110c24 -20 48 -21 60 -21c7 0 22 1 40 8c13 6 42 20 55 57c6 15 7 28 7 44z" />
    <glyph glyph-name="ordmasculine" unicode="&#xba;" horiz-adv-x="187" 
d="M164 500c0 -21 1 -82 -74 -81c-73 1 -68 63 -68 81v131c0 14 -3 83 71 83c70 0 71 -58 71 -76v-138zM130 500v131c0 26 -1 53 -38 52c-25 -1 -38 -13 -38 -52v-131c0 -4 -4 -48 38 -49c43 -2 38 47 38 49z" />
    <glyph glyph-name="ae" unicode="&#xe6;" horiz-adv-x="500" 
d="M461 141c0 -30 -2 -65 -18 -92c-8 -13 -15 -21 -27 -30c-21 -15 -43 -22 -69 -22c-17 0 -54 0 -85 34c-5 6 -11 14 -21 28c-1 -2 -9 -14 -18 -23c-10 -10 -44 -38 -90 -38c-42 0 -103 22 -103 119c0 62 22 103 73 136c18 12 38 21 57 31c24 12 46 26 68 40v79
c0 24 -5 45 -30 56c-14 6 -28 7 -33 7c-6 0 -21 -1 -37 -10c-33 -18 -32 -64 -32 -95v-11h-42v36c0 66 24 93 54 107c12 5 30 11 59 11c42 0 64 -13 77 -26c4 -4 9 -9 12 -13c4 4 8 9 12 12c29 28 65 28 79 28c120 0 113 -108 113 -141v-107h-190v-105c0 -57 8 -83 35 -101
c12 -9 26 -13 40 -13c16 0 28 5 33 8c43 20 40 68 40 80v46h43v-31zM418 293v88c0 30 -3 58 -31 74c-7 4 -21 11 -41 11c-12 0 -42 -3 -60 -29c-12 -17 -16 -35 -16 -73v-71h148zM228 101v180c-34 -25 -40 -26 -78 -46c-32 -17 -56 -37 -69 -73c-8 -20 -9 -36 -9 -45
c0 -17 4 -30 6 -36c6 -17 20 -43 65 -43c58 0 77 47 85 63z" />
    <glyph glyph-name="oslash" unicode="&#xf8;" 
d="M294 495l-29 -56c6 -18 8 -22 8 -53v-266c0 -5 -1 -30 -8 -50c-23 -68 -93 -72 -113 -71c-10 0 -32 0 -55 11c-7 3 -13 6 -19 10c-9 7 -14 15 -17 18l-22 -42l-17 10l27 53c-8 25 -11 31 -11 58v254c0 37 5 76 33 103c14 14 41 32 89 32c38 0 62 -12 75 -22
c10 -7 17 -17 19 -20l22 41zM227 409c-6 21 -15 55 -70 55c-8 0 -39 -1 -57 -23c-18 -21 -19 -47 -19 -73v-245zM231 152v218l-145 -284c3 -11 7 -19 10 -22c8 -11 26 -26 59 -26c25 0 39 8 47 14c30 23 29 67 29 100z" />
    <glyph glyph-name="oe" unicode="&#x153;" horiz-adv-x="500" 
d="M462 125c0 -32 -2 -44 -7 -60c-8 -27 -34 -70 -103 -69c-30 0 -59 7 -81 28c-6 6 -12 15 -20 30c-2 -3 -7 -11 -13 -18c-12 -14 -40 -40 -88 -40c-21 0 -42 5 -60 15c-45 25 -48 72 -48 118v228c0 48 -3 96 43 126c29 20 62 21 73 21c13 0 53 -1 82 -30
c4 -5 11 -14 15 -19c2 4 8 13 16 21c21 20 53 29 82 29c25 0 49 -6 68 -20c44 -33 41 -90 41 -137v-93h-188v-100c0 -38 -2 -81 34 -105c7 -5 20 -13 42 -13c37 0 55 22 61 35c5 10 8 20 8 45v52h43v-44zM419 291v82c0 30 -2 41 -8 55s-22 38 -61 38c-51 0 -68 -39 -72 -55
c-4 -13 -5 -23 -5 -37v-83h146zM231 135v241c0 17 1 89 -73 89c-48 0 -66 -34 -70 -51c-4 -13 -4 -25 -4 -38v-220c0 -59 3 -86 29 -106c8 -6 20 -13 42 -13c12 0 40 1 59 28c16 21 17 44 17 70z" />
    <glyph glyph-name="germandbls" unicode="&#xdf;" horiz-adv-x="354" 
d="M306 83c0 -7 0 -20 -4 -35c-7 -24 -26 -56 -83 -56c-3 0 -19 1 -32 6c-38 14 -38 51 -38 64v78h29v-65c0 -6 0 -28 20 -38c9 -5 18 -5 21 -5c37 1 44 32 44 60v184c0 38 2 83 -31 111c-22 19 -46 21 -74 23v43c25 1 43 2 63 19c25 21 25 45 25 74v45c0 20 -1 32 -3 40
c-6 19 -21 42 -66 42c-6 0 -27 0 -45 -9c-36 -18 -35 -62 -35 -96v-568h-43v577c0 39 3 81 35 110c30 27 82 27 91 27c61 0 91 -30 101 -54c5 -11 8 -24 8 -49v-80c0 -5 0 -21 -4 -36c-12 -46 -54 -56 -67 -60c39 -15 54 -26 68 -44c19 -25 20 -56 20 -87v-221z" />
    <glyph glyph-name="Ydieresis" unicode="&#x178;" horiz-adv-x="354" 
d="M278 789h-52v76h52v-76zM130 789h-52v76h52v-76zM345 706l-144 -394v-312h-48v312l-139 394h52l113 -332l112 332h54z" />
    <glyph glyph-name="trademark" unicode="&#x2122;" horiz-adv-x="514" 
d="M450 374h-39l4 300l-62 -300h-44l-62 300l7 -300h-39l-1 332h57l60 -296l60 296h58zM184 670h-60v-296h-40v296h-62v36h162v-36z" />
    <glyph glyph-name="scaron" unicode="&#x161;" horiz-adv-x="292" 
d="M253 680l-77 -109h-50l-72 108h39l58 -67l61 68h41zM265 123c0 -69 -28 -98 -57 -112c-11 -5 -30 -13 -60 -13c-25 0 -51 5 -73 18c-3 2 -14 10 -22 18c-3 4 -6 8 -10 17c-10 20 -15 39 -15 83v43h42v-29c0 -24 -1 -58 14 -81c7 -11 16 -16 20 -18c19 -10 36 -10 44 -10
c6 0 21 -1 36 6c31 13 38 49 38 78c0 57 -25 75 -66 109c-35 28 -59 51 -72 64c-14 16 -37 46 -37 101c0 38 8 108 106 108c107 0 105 -86 105 -121v-34h-43v36c0 29 -3 63 -35 75c-11 4 -25 4 -28 4c-42 0 -62 -20 -62 -64c0 -29 2 -46 21 -68c11 -14 39 -40 75 -70
c15 -12 30 -24 44 -38c15 -16 35 -47 35 -102z" />
    <glyph glyph-name="Scaron" unicode="&#x160;" horiz-adv-x="375" 
d="M293 877l-77 -108h-51l-71 108h39l58 -68l62 68h40zM334 156c0 -59 -11 -94 -25 -115c-17 -25 -52 -52 -120 -52c-27 0 -59 5 -81 17c-5 3 -13 8 -23 17c-16 14 -27 30 -35 51c-7 20 -8 36 -8 57v100h49v-57c0 -15 -1 -29 0 -44c2 -34 13 -98 104 -98c8 0 30 0 51 13
c25 15 39 45 39 103c0 55 -12 80 -25 101c-26 40 -73 85 -80 91c-41 40 -66 68 -81 89c-17 23 -40 63 -40 131c0 4 0 33 4 53c7 40 30 103 129 103c11 0 51 0 83 -20c49 -32 49 -92 49 -143v-51h-48v63c0 25 0 33 -3 47c-4 24 -19 62 -80 62c-7 0 -30 0 -50 -12
c-22 -14 -35 -42 -35 -94c0 -67 18 -94 61 -143c15 -18 31 -35 48 -53c25 -25 50 -49 72 -77c35 -44 45 -83 45 -139z" />
    <glyph glyph-name="ydieresis" unicode="&#xff;" horiz-adv-x="292" 
d="M227 585h-48v77h48v-77zM128 585h-48v77h48v-77zM280 503l-129 -560c-7 -29 -14 -53 -35 -75c-31 -32 -73 -32 -107 -32l1 42c16 -2 69 -9 93 40c5 10 7 18 9 28l13 58l-110 499h43l88 -418l89 418h45z" />
    <glyph glyph-name="thorn" unicode="&#xfe;" horiz-adv-x="333" 
d="M285 114c0 -35 -5 -73 -46 -101c-11 -7 -30 -16 -56 -16c-46 0 -70 23 -86 44v-204h-43v869h40v-250c17 21 45 51 93 52c19 0 39 -4 56 -17c45 -35 42 -95 42 -134v-243zM242 129v262c0 60 -36 78 -65 78c-19 0 -63 -7 -80 -65v-310c18 -52 64 -57 78 -57
c76 0 67 89 67 92z" />
    <glyph glyph-name="yacute" unicode="&#xfd;" horiz-adv-x="292" 
d="M262 676l-142 -109h-36l84 109h94zM280 503l-129 -560c-7 -29 -14 -53 -35 -75c-31 -32 -73 -32 -107 -32l1 42c16 -2 69 -9 93 40c5 10 7 18 9 28l13 58l-110 499h43l88 -418l89 418h45z" />
    <glyph glyph-name="udieresis" unicode="&#xfc;" horiz-adv-x="333" 
d="M238 585h-48v77h48v-77zM139 585h-48v77h48v-77zM279 0h-43v47c-4 -5 -7 -10 -16 -19c-20 -19 -47 -31 -75 -31c-29 0 -58 13 -75 37c-18 24 -20 53 -20 81v388h42v-372c0 -31 3 -74 38 -91c5 -3 14 -6 28 -6c12 0 42 4 61 31c7 10 13 23 17 34v404h43v-503z" />
    <glyph glyph-name="ucircumflex" unicode="&#xfb;" horiz-adv-x="333" 
d="M264 568h-39l-58 69l-62 -69h-40l76 109h51zM279 0h-43v47c-4 -5 -7 -10 -16 -19c-20 -19 -47 -31 -75 -31c-29 0 -58 13 -75 37c-18 24 -20 53 -20 81v388h42v-372c0 -31 3 -74 38 -91c5 -3 14 -6 28 -6c12 0 42 4 61 31c7 10 13 23 17 34v404h43v-503z" />
    <glyph glyph-name="uacute" unicode="&#xfa;" horiz-adv-x="333" 
d="M283 676l-142 -109h-36l84 109h94zM279 0h-43v47c-4 -5 -7 -10 -16 -19c-20 -19 -47 -31 -75 -31c-29 0 -58 13 -75 37c-18 24 -20 53 -20 81v388h42v-372c0 -31 3 -74 38 -91c5 -3 14 -6 28 -6c12 0 42 4 61 31c7 10 13 23 17 34v404h43v-503z" />
    <glyph glyph-name="ugrave" unicode="&#xf9;" horiz-adv-x="333" 
d="M224 569h-33l-151 109h97zM279 0h-43v47c-4 -5 -7 -10 -16 -19c-20 -19 -47 -31 -75 -31c-29 0 -58 13 -75 37c-18 24 -20 53 -20 81v388h42v-372c0 -31 3 -74 38 -91c5 -3 14 -6 28 -6c12 0 42 4 61 31c7 10 13 23 17 34v404h43v-503z" />
    <glyph glyph-name="divide" unicode="&#xf7;" horiz-adv-x="559" 
d="M305 378h-49v74h49v-74zM475 275h-390v42h390v-42zM305 139h-49v74h49v-74z" />
    <glyph glyph-name="odieresis" unicode="&#xf6;" 
d="M230 585h-48v77h48v-77zM131 585h-48v77h48v-77zM274 142c0 -23 -1 -45 -7 -65c-21 -73 -90 -79 -112 -79c-43 0 -90 19 -107 62c-8 19 -9 41 -9 61v264c0 30 2 51 21 76c14 20 44 45 100 45c31 0 61 -7 84 -29c10 -10 18 -24 23 -37c7 -20 7 -38 7 -58v-240zM231 126
v252c0 29 -3 56 -29 74c-8 6 -21 12 -42 12c-8 0 -30 0 -48 -14c-30 -22 -30 -53 -30 -85v-243c0 -5 0 -20 3 -33c9 -34 36 -50 70 -50c45 0 62 26 69 43c4 10 7 21 7 44z" />
    <glyph glyph-name="otilde" unicode="&#xf5;" 
d="M267 641c-5 -8 -10 -15 -15 -23c-15 -20 -31 -39 -59 -39c-13 0 -33 10 -63 20c-2 1 -13 5 -23 5c-21 0 -32 -12 -44 -26l-16 13c18 26 39 55 74 55c15 0 29 -4 42 -10c13 -5 28 -14 42 -14c7 0 12 1 18 5c10 5 15 12 29 27zM274 142c0 -23 -1 -45 -7 -65
c-21 -73 -90 -79 -112 -79c-43 0 -90 19 -107 62c-8 19 -9 41 -9 61v264c0 30 2 51 21 76c14 20 44 45 100 45c31 0 61 -7 84 -29c10 -10 18 -24 23 -37c7 -20 7 -38 7 -58v-240zM231 126v252c0 29 -3 56 -29 74c-8 6 -21 12 -42 12c-8 0 -30 0 -48 -14
c-30 -22 -30 -53 -30 -85v-243c0 -5 0 -20 3 -33c9 -34 36 -50 70 -50c45 0 62 26 69 43c4 10 7 21 7 44z" />
    <glyph glyph-name="ocircumflex" unicode="&#xf4;" 
d="M254 568h-39l-59 69l-61 -69h-41l77 109h51zM274 142c0 -23 -1 -45 -7 -65c-21 -73 -90 -79 -112 -79c-43 0 -90 19 -107 62c-8 19 -9 41 -9 61v264c0 30 2 51 21 76c14 20 44 45 100 45c31 0 61 -7 84 -29c10 -10 18 -24 23 -37c7 -20 7 -38 7 -58v-240zM231 126v252
c0 29 -3 56 -29 74c-8 6 -21 12 -42 12c-8 0 -30 0 -48 -14c-30 -22 -30 -53 -30 -85v-243c0 -5 0 -20 3 -33c9 -34 36 -50 70 -50c45 0 62 26 69 43c4 10 7 21 7 44z" />
    <glyph glyph-name="oacute" unicode="&#xf3;" 
d="M273 676l-143 -109h-36l84 109h95zM274 142c0 -23 -1 -45 -7 -65c-21 -73 -90 -79 -112 -79c-43 0 -90 19 -107 62c-8 19 -9 41 -9 61v264c0 30 2 51 21 76c14 20 44 45 100 45c31 0 61 -7 84 -29c10 -10 18 -24 23 -37c7 -20 7 -38 7 -58v-240zM231 126v252
c0 29 -3 56 -29 74c-8 6 -21 12 -42 12c-8 0 -30 0 -48 -14c-30 -22 -30 -53 -30 -85v-243c0 -5 0 -20 3 -33c9 -34 36 -50 70 -50c45 0 62 26 69 43c4 10 7 21 7 44z" />
    <glyph glyph-name="ograve" unicode="&#xf2;" 
d="M213 569h-32l-152 109h97zM274 142c0 -23 -1 -45 -7 -65c-21 -73 -90 -79 -112 -79c-43 0 -90 19 -107 62c-8 19 -9 41 -9 61v264c0 30 2 51 21 76c14 20 44 45 100 45c31 0 61 -7 84 -29c10 -10 18 -24 23 -37c7 -20 7 -38 7 -58v-240zM231 126v252c0 29 -3 56 -29 74
c-8 6 -21 12 -42 12c-8 0 -30 0 -48 -14c-30 -22 -30 -53 -30 -85v-243c0 -5 0 -20 3 -33c9 -34 36 -50 70 -50c45 0 62 26 69 43c4 10 7 21 7 44z" />
    <glyph glyph-name="ntilde" unicode="&#xf1;" horiz-adv-x="333" 
d="M278 641c-5 -8 -11 -15 -16 -23c-15 -20 -31 -39 -58 -39c-14 0 -34 10 -63 20c-3 1 -14 5 -24 5c-20 0 -32 -12 -44 -26l-15 13c17 26 39 55 74 55c15 0 28 -4 41 -10c13 -5 28 -14 42 -14c7 0 13 1 19 5c9 5 15 12 28 27zM285 0h-42v403c-1 4 -1 18 -5 31
c-5 13 -20 39 -57 38c-29 0 -55 -15 -71 -38c-5 -7 -7 -11 -13 -25v-409h-42v503h42v-48c8 13 14 19 19 24c27 27 60 30 74 30c41 -1 78 -21 90 -64c4 -14 5 -27 5 -41v-404z" />
    <glyph glyph-name="eth" unicode="&#xf0;" 
d="M287 634l-57 -22c35 -60 45 -107 45 -224l-1 -246c0 -43 0 -101 -63 -132c-25 -12 -49 -12 -56 -12c-35 0 -83 12 -106 59c-9 19 -10 45 -10 64v264c0 16 1 32 7 48c26 71 101 73 109 73c32 0 53 -8 78 -41c-4 48 -8 86 -39 133l-103 -38l-14 30l96 37
c-4 5 -38 43 -69 66l35 18c16 -14 41 -34 70 -70l64 24zM231 126v251c-1 11 4 87 -71 87c-87 0 -78 -85 -78 -99v-243c0 -17 0 -85 75 -83s74 71 74 87z" />
    <glyph glyph-name="idieresis" unicode="&#xef;" horiz-adv-x="146" 
d="M144 585h-48v77h48v-77zM45 585h-48v77h48v-77zM95 0h-43v504h43v-504z" />
    <glyph glyph-name="icircumflex" unicode="&#xee;" horiz-adv-x="146" 
d="M170 568h-39l-58 69l-61 -69h-41l77 109h50zM95 0h-43v504h43v-504z" />
    <glyph glyph-name="iacute" unicode="&#xed;" horiz-adv-x="146" 
d="M189 676l-142 -109h-36l84 109h94zM95 0h-43v504h43v-504z" />
    <glyph glyph-name="igrave" unicode="&#xec;" horiz-adv-x="146" 
d="M130 569h-33l-151 109h97zM95 0h-43v504h43v-504z" />
    <glyph glyph-name="edieresis" unicode="&#xeb;" 
d="M227 585h-48v77h48v-77zM128 585h-48v77h48v-77zM273 118c0 -30 -3 -53 -22 -78c-31 -41 -78 -41 -94 -41c-14 0 -30 2 -43 6s-49 21 -63 61c-6 15 -8 27 -8 56v264c0 8 0 26 6 47c9 29 34 73 108 73c54 0 82 -24 96 -44c21 -32 20 -77 20 -114v-101h-188v-124
c0 -4 0 -21 4 -36c6 -20 21 -49 71 -49c6 0 32 1 50 18c3 3 10 10 14 22c8 22 7 48 7 97h42v-57zM230 283v92c0 44 -11 66 -28 79c-7 5 -22 14 -44 14c-7 0 -27 -1 -44 -14c-27 -21 -29 -52 -29 -83v-88h145z" />
    <glyph glyph-name="ecircumflex" unicode="&#xea;" 
d="M254 568h-39l-59 69l-61 -69h-41l77 109h51zM273 118c0 -30 -3 -53 -22 -78c-31 -41 -78 -41 -94 -41c-14 0 -30 2 -43 6s-49 21 -63 61c-6 15 -8 27 -8 56v264c0 8 0 26 6 47c9 29 34 73 108 73c54 0 82 -24 96 -44c21 -32 20 -77 20 -114v-101h-188v-124
c0 -4 0 -21 4 -36c6 -20 21 -49 71 -49c6 0 32 1 50 18c3 3 10 10 14 22c8 22 7 48 7 97h42v-57zM230 283v92c0 44 -11 66 -28 79c-7 5 -22 14 -44 14c-7 0 -27 -1 -44 -14c-27 -21 -29 -52 -29 -83v-88h145z" />
    <glyph glyph-name="eacute" unicode="&#xe9;" 
d="M273 676l-143 -109h-36l84 109h95zM273 118c0 -30 -3 -53 -22 -78c-31 -41 -78 -41 -94 -41c-14 0 -30 2 -43 6s-49 21 -63 61c-6 15 -8 27 -8 56v264c0 8 0 26 6 47c9 29 34 73 108 73c54 0 82 -24 96 -44c21 -32 20 -77 20 -114v-101h-188v-124c0 -4 0 -21 4 -36
c6 -20 21 -49 71 -49c6 0 32 1 50 18c3 3 10 10 14 22c8 22 7 48 7 97h42v-57zM230 283v92c0 44 -11 66 -28 79c-7 5 -22 14 -44 14c-7 0 -27 -1 -44 -14c-27 -21 -29 -52 -29 -83v-88h145z" />
    <glyph glyph-name="egrave" unicode="&#xe8;" 
d="M213 569h-32l-152 109h97zM273 118c0 -30 -3 -53 -22 -78c-31 -41 -78 -41 -94 -41c-14 0 -30 2 -43 6s-49 21 -63 61c-6 15 -8 27 -8 56v264c0 8 0 26 6 47c9 29 34 73 108 73c54 0 82 -24 96 -44c21 -32 20 -77 20 -114v-101h-188v-124c0 -4 0 -21 4 -36
c6 -20 21 -49 71 -49c6 0 32 1 50 18c3 3 10 10 14 22c8 22 7 48 7 97h42v-57zM230 283v92c0 44 -11 66 -28 79c-7 5 -22 14 -44 14c-7 0 -27 -1 -44 -14c-27 -21 -29 -52 -29 -83v-88h145z" />
    <glyph glyph-name="ccedilla" unicode="&#xe7;" 
d="M275 127c0 -26 5 -118 -105 -129l-1 -23c8 -2 69 -17 72 -69c1 -22 -14 -66 -71 -66c-40 0 -76 23 -90 30l19 23c17 -9 35 -20 52 -20c29 -1 38 20 38 33c0 31 -36 38 -55 42l3 50c-90 15 -97 83 -97 146v232c0 110 70 128 120 127c116 -3 111 -114 111 -135v-44h-42v38
c0 25 0 64 -27 88c-15 13 -31 16 -45 16c-78 0 -74 -86 -74 -93v-224c0 -50 3 -112 79 -112c72 0 70 68 70 82v73h43v-65z" />
    <glyph glyph-name="aring" unicode="&#xe5;" 
d="M231 615c0 -37 -30 -66 -66 -66c-8 0 -30 3 -47 20c-6 6 -19 22 -19 47c0 37 30 66 66 66c37 0 66 -31 66 -67zM296 0c-32 0 -47 3 -59 14c-7 6 -10 10 -14 25c-14 -11 -46 -39 -97 -39c-70 0 -98 56 -98 118c0 39 10 64 18 79c29 53 84 73 132 100c20 11 27 15 44 29v57
c0 26 1 56 -24 73c-12 9 -25 9 -40 9c-37 0 -50 -16 -57 -32c-11 -24 -10 -59 -9 -85h-43c0 55 0 77 12 103c25 56 87 55 103 55c21 0 40 -4 59 -14c39 -22 43 -57 43 -97v-338c2 -18 16 -17 30 -17v-40zM209 616c0 24 -20 44 -44 44c-25 -1 -44 -21 -44 -45
c0 -16 9 -27 13 -31c8 -8 19 -13 31 -13c25 0 44 21 44 45zM223 87v192c-10 -8 -21 -15 -32 -21c-17 -10 -34 -18 -50 -27c-46 -28 -70 -59 -70 -114c0 -16 3 -77 66 -77c39 0 62 21 86 47z" />
    <glyph glyph-name="adieresis" unicode="&#xe4;" 
d="M238 585h-48v77h48v-77zM139 585h-48v77h48v-77zM296 0c-32 0 -47 3 -59 14c-7 6 -10 10 -14 25c-14 -11 -46 -39 -97 -39c-70 0 -98 56 -98 118c0 39 10 64 18 79c29 53 84 73 132 100c20 11 27 15 44 29v57c0 26 1 56 -24 73c-12 9 -25 9 -40 9c-37 0 -50 -16 -57 -32
c-11 -24 -10 -59 -9 -85h-43c0 55 0 77 12 103c25 56 87 55 103 55c21 0 40 -4 59 -14c39 -22 43 -57 43 -97v-338c2 -18 16 -17 30 -17v-40zM223 87v192c-10 -8 -21 -15 -32 -21c-17 -10 -34 -18 -50 -27c-46 -28 -70 -59 -70 -114c0 -16 3 -77 66 -77c39 0 62 21 86 47z
" />
    <glyph glyph-name="atilde" unicode="&#xe3;" 
d="M278 641c-5 -8 -11 -15 -16 -23c-15 -20 -31 -39 -58 -39c-14 0 -34 10 -63 20c-3 1 -14 5 -24 5c-20 0 -32 -12 -44 -26l-15 13c17 26 39 55 74 55c15 0 28 -4 41 -10c13 -5 28 -14 42 -14c7 0 13 1 19 5c9 5 15 12 28 27zM296 0c-32 0 -47 3 -59 14c-7 6 -10 10 -14 25
c-14 -11 -46 -39 -97 -39c-70 0 -98 56 -98 118c0 39 10 64 18 79c29 53 84 73 132 100c20 11 27 15 44 29v57c0 26 1 56 -24 73c-12 9 -25 9 -40 9c-37 0 -50 -16 -57 -32c-11 -24 -10 -59 -9 -85h-43c0 55 0 77 12 103c25 56 87 55 103 55c21 0 40 -4 59 -14
c39 -22 43 -57 43 -97v-338c2 -18 16 -17 30 -17v-40zM223 87v192c-10 -8 -21 -15 -32 -21c-17 -10 -34 -18 -50 -27c-46 -28 -70 -59 -70 -114c0 -16 3 -77 66 -77c39 0 62 21 86 47z" />
    <glyph glyph-name="acircumflex" unicode="&#xe2;" 
d="M264 568h-39l-58 69l-62 -69h-40l76 109h51zM296 0c-32 0 -47 3 -59 14c-7 6 -10 10 -14 25c-14 -11 -46 -39 -97 -39c-70 0 -98 56 -98 118c0 39 10 64 18 79c29 53 84 73 132 100c20 11 27 15 44 29v57c0 26 1 56 -24 73c-12 9 -25 9 -40 9c-37 0 -50 -16 -57 -32
c-11 -24 -10 -59 -9 -85h-43c0 55 0 77 12 103c25 56 87 55 103 55c21 0 40 -4 59 -14c39 -22 43 -57 43 -97v-338c2 -18 16 -17 30 -17v-40zM223 87v192c-10 -8 -21 -15 -32 -21c-17 -10 -34 -18 -50 -27c-46 -28 -70 -59 -70 -114c0 -16 3 -77 66 -77c39 0 62 21 86 47z
" />
    <glyph glyph-name="aacute" unicode="&#xe1;" 
d="M283 676l-142 -109h-36l84 109h94zM296 0c-32 0 -47 3 -59 14c-7 6 -10 10 -14 25c-14 -11 -46 -39 -97 -39c-70 0 -98 56 -98 118c0 39 10 64 18 79c29 53 84 73 132 100c20 11 27 15 44 29v57c0 26 1 56 -24 73c-12 9 -25 9 -40 9c-37 0 -50 -16 -57 -32
c-11 -24 -10 -59 -9 -85h-43c0 55 0 77 12 103c25 56 87 55 103 55c21 0 40 -4 59 -14c39 -22 43 -57 43 -97v-338c2 -18 16 -17 30 -17v-40zM223 87v192c-10 -8 -21 -15 -32 -21c-17 -10 -34 -18 -50 -27c-46 -28 -70 -59 -70 -114c0 -16 3 -77 66 -77c39 0 62 21 86 47z
" />
    <glyph glyph-name="agrave" unicode="&#xe0;" 
d="M224 569h-33l-151 109h97zM296 0c-32 0 -47 3 -59 14c-7 6 -10 10 -14 25c-14 -11 -46 -39 -97 -39c-70 0 -98 56 -98 118c0 39 10 64 18 79c29 53 84 73 132 100c20 11 27 15 44 29v57c0 26 1 56 -24 73c-12 9 -25 9 -40 9c-37 0 -50 -16 -57 -32
c-11 -24 -10 -59 -9 -85h-43c0 55 0 77 12 103c25 56 87 55 103 55c21 0 40 -4 59 -14c39 -22 43 -57 43 -97v-338c2 -18 16 -17 30 -17v-40zM223 87v192c-10 -8 -21 -15 -32 -21c-17 -10 -34 -18 -50 -27c-46 -28 -70 -59 -70 -114c0 -16 3 -77 66 -77c39 0 62 21 86 47z
" />
    <glyph glyph-name="Thorn" unicode="&#xde;" horiz-adv-x="375" 
d="M333 343c0 -24 -2 -39 -5 -48c-22 -82 -93 -91 -149 -91h-72v-204h-49v706h48v-117h61c19 0 55 -1 73 -4c87 -17 93 -84 93 -142v-100zM285 352v60c0 57 -2 96 -27 118c-21 18 -55 17 -77 17l-75 -1v-301h80c48 0 99 8 99 107z" />
    <glyph glyph-name="Yacute" unicode="&#xdd;" horiz-adv-x="354" 
d="M295 878l-142 -109h-37l84 109h95zM345 706l-144 -394v-312h-48v312l-139 394h52l113 -332l112 332h54z" />
    <glyph glyph-name="Udieresis" unicode="&#xdc;" horiz-adv-x="396" 
d="M297 789h-52v76h52v-76zM149 789h-52v76h52v-76zM338 140c0 -24 -2 -49 -10 -71c-29 -78 -110 -81 -132 -81c-11 0 -56 1 -89 26c-9 6 -16 14 -22 23c-30 40 -28 84 -28 130v539h48v-547c0 -46 4 -70 16 -89c11 -17 34 -36 78 -36c7 0 37 0 58 17c33 25 32 63 32 136v519
h49v-566z" />
    <glyph glyph-name="Ucircumflex" unicode="&#xdb;" horiz-adv-x="396" 
d="M296 770h-40l-59 68l-61 -69h-41l78 109h50zM338 140c0 -24 -2 -49 -10 -71c-29 -78 -110 -81 -132 -81c-11 0 -56 1 -89 26c-9 6 -16 14 -22 23c-30 40 -28 84 -28 130v539h48v-547c0 -46 4 -70 16 -89c11 -17 34 -36 78 -36c7 0 37 0 58 17c33 25 32 63 32 136v519h49
v-566z" />
    <glyph glyph-name="Uacute" unicode="&#xda;" horiz-adv-x="396" 
d="M315 878l-142 -109h-36l84 109h94zM338 140c0 -24 -2 -49 -10 -71c-29 -78 -110 -81 -132 -81c-11 0 -56 1 -89 26c-9 6 -16 14 -22 23c-30 40 -28 84 -28 130v539h48v-547c0 -46 4 -70 16 -89c11 -17 34 -36 78 -36c7 0 37 0 58 17c33 25 32 63 32 136v519h49v-566z" />
    <glyph glyph-name="Ugrave" unicode="&#xd9;" horiz-adv-x="396" 
d="M255 771h-32l-153 109h97zM338 140c0 -24 -2 -49 -10 -71c-29 -78 -110 -81 -132 -81c-11 0 -56 1 -89 26c-9 6 -16 14 -22 23c-30 40 -28 84 -28 130v539h48v-547c0 -46 4 -70 16 -89c11 -17 34 -36 78 -36c7 0 37 0 58 17c33 25 32 63 32 136v519h49v-566z" />
    <glyph glyph-name="multiply" unicode="&#xd7;" horiz-adv-x="558" 
d="M435 172l-30 -32l-127 126l-112 -126l-32 28l115 127l-130 132l31 31l129 -129l118 131l30 -29l-119 -132z" />
    <glyph glyph-name="Odieresis" unicode="&#xd6;" horiz-adv-x="396" 
d="M297 789h-52v76h52v-76zM149 789h-52v76h52v-76zM340 144c0 -33 -3 -63 -21 -92c-15 -26 -52 -61 -124 -61c-14 0 -75 1 -110 43c-28 35 -31 75 -31 117v398c1 8 0 48 11 80c20 59 75 86 135 85c32 0 64 -7 90 -26c50 -38 50 -99 50 -154v-390zM293 163v344
c0 59 -3 92 -17 119c-4 8 -12 23 -32 33c-7 4 -24 11 -47 11c-28 0 -46 -10 -54 -15c-43 -28 -41 -84 -41 -96v-389c0 -40 2 -62 8 -80c7 -19 32 -55 88 -55c20 0 39 5 55 17c38 27 40 70 40 111z" />
    <glyph glyph-name="Otilde" unicode="&#xd5;" horiz-adv-x="396" 
d="M309 842c-5 -8 -10 -16 -15 -23c-15 -20 -31 -39 -59 -39c-13 0 -33 9 -63 19c-2 1 -14 6 -24 6c-20 0 -31 -12 -43 -26l-16 13c18 26 39 55 74 55c15 0 28 -4 42 -10c13 -6 28 -14 42 -14c7 0 12 1 18 4c10 5 15 13 29 28zM340 144c0 -33 -3 -63 -21 -92
c-15 -26 -52 -61 -124 -61c-14 0 -75 1 -110 43c-28 35 -31 75 -31 117v398c1 8 0 48 11 80c20 59 75 86 135 85c32 0 64 -7 90 -26c50 -38 50 -99 50 -154v-390zM293 163v344c0 59 -3 92 -17 119c-4 8 -12 23 -32 33c-7 4 -24 11 -47 11c-28 0 -46 -10 -54 -15
c-43 -28 -41 -84 -41 -96v-389c0 -40 2 -62 8 -80c7 -19 32 -55 88 -55c20 0 39 5 55 17c38 27 40 70 40 111z" />
    <glyph glyph-name="Ocircumflex" unicode="&#xd4;" horiz-adv-x="396" 
d="M296 770h-40l-59 68l-61 -69h-41l78 109h50zM340 144c0 -33 -3 -63 -21 -92c-15 -26 -52 -61 -124 -61c-14 0 -75 1 -110 43c-28 35 -31 75 -31 117v398c1 8 0 48 11 80c20 59 75 86 135 85c32 0 64 -7 90 -26c50 -38 50 -99 50 -154v-390zM293 163v344
c0 59 -3 92 -17 119c-4 8 -12 23 -32 33c-7 4 -24 11 -47 11c-28 0 -46 -10 -54 -15c-43 -28 -41 -84 -41 -96v-389c0 -40 2 -62 8 -80c7 -19 32 -55 88 -55c20 0 39 5 55 17c38 27 40 70 40 111z" />
    <glyph glyph-name="Oacute" unicode="&#xd3;" horiz-adv-x="396" 
d="M315 878l-142 -109h-36l84 109h94zM340 144c0 -33 -3 -63 -21 -92c-15 -26 -52 -61 -124 -61c-14 0 -75 1 -110 43c-28 35 -31 75 -31 117v398c1 8 0 48 11 80c20 59 75 86 135 85c32 0 64 -7 90 -26c50 -38 50 -99 50 -154v-390zM293 163v344c0 59 -3 92 -17 119
c-4 8 -12 23 -32 33c-7 4 -24 11 -47 11c-28 0 -46 -10 -54 -15c-43 -28 -41 -84 -41 -96v-389c0 -40 2 -62 8 -80c7 -19 32 -55 88 -55c20 0 39 5 55 17c38 27 40 70 40 111z" />
    <glyph glyph-name="Ograve" unicode="&#xd2;" horiz-adv-x="396" 
d="M255 771h-32l-153 109h97zM340 144c0 -33 -3 -63 -21 -92c-15 -26 -52 -61 -124 -61c-14 0 -75 1 -110 43c-28 35 -31 75 -31 117v398c1 8 0 48 11 80c20 59 75 86 135 85c32 0 64 -7 90 -26c50 -38 50 -99 50 -154v-390zM293 163v344c0 59 -3 92 -17 119
c-4 8 -12 23 -32 33c-7 4 -24 11 -47 11c-28 0 -46 -10 -54 -15c-43 -28 -41 -84 -41 -96v-389c0 -40 2 -62 8 -80c7 -19 32 -55 88 -55c20 0 39 5 55 17c38 27 40 70 40 111z" />
    <glyph glyph-name="Ntilde" unicode="&#xd1;" horiz-adv-x="396" 
d="M309 842c-5 -8 -10 -16 -15 -23c-15 -20 -31 -39 -59 -39c-13 0 -33 9 -63 19c-2 1 -14 6 -24 6c-20 0 -31 -12 -43 -26l-16 13c18 26 39 55 74 55c15 0 28 -4 42 -10c13 -6 28 -14 42 -14c7 0 12 1 18 4c10 5 15 13 29 28zM337 0h-75l-164 667l4 -667h-47v706h72
l169 -679l-7 679h48v-706z" />
    <glyph glyph-name="Eth" unicode="&#xd0;" horiz-adv-x="396" 
d="M341 252c0 -54 1 -136 -43 -190c-17 -21 -41 -43 -83 -54c-28 -8 -68 -8 -73 -8h-82v370h-61v42h60v294h82c51 0 108 -5 154 -61c39 -47 46 -120 46 -231v-162zM293 251v168c0 103 -5 170 -51 210c-33 29 -67 32 -101 32h-33v-249h110v-42h-110v-325h42c4 0 40 0 66 12
c81 38 77 142 77 194z" />
    <glyph glyph-name="Idieresis" unicode="&#xcf;" horiz-adv-x="167" 
d="M184 789h-51v76h51v-76zM36 789h-52v76h52v-76zM109 0h-51v706h51v-706z" />
    <glyph glyph-name="Icircumflex" unicode="&#xce;" horiz-adv-x="167" 
d="M181 770h-39l-59 68l-61 -69h-41l77 109h51zM109 0h-51v706h51v-706z" />
    <glyph glyph-name="Iacute" unicode="&#xcd;" horiz-adv-x="167" 
d="M201 878l-142 -109h-37l85 109h94zM109 0h-51v706h51v-706z" />
    <glyph glyph-name="Igrave" unicode="&#xcc;" horiz-adv-x="167" 
d="M141 771h-33l-152 109h97zM109 0h-51v706h51v-706z" />
    <glyph glyph-name="Edieresis" unicode="&#xcb;" horiz-adv-x="333" 
d="M278 789h-52v76h52v-76zM130 789h-52v76h52v-76zM309 662h-202v-272h166v-43h-166v-303h201v-44h-249v706h250v-44z" />
    <glyph glyph-name="Ecircumflex" unicode="&#xca;" horiz-adv-x="333" 
d="M275 770h-40l-58 68l-61 -69h-42l78 109h50zM309 662h-202v-272h166v-43h-166v-303h201v-44h-249v706h250v-44z" />
    <glyph glyph-name="Eacute" unicode="&#xc9;" horiz-adv-x="333" 
d="M300 878l-142 -109h-37l85 109h94zM309 662h-202v-272h166v-43h-166v-303h201v-44h-249v706h250v-44z" />
    <glyph glyph-name="Egrave" unicode="&#xc8;" horiz-adv-x="333" 
d="M224 771h-33l-152 109h97zM309 662h-202v-272h166v-43h-166v-303h201v-44h-249v706h250v-44z" />
    <glyph glyph-name="Ccedilla" unicode="&#xc7;" horiz-adv-x="375" 
d="M334 134c0 -46 -3 -136 -133 -145l-1 -14c8 -2 69 -17 72 -69c1 -22 -14 -66 -70 -66c-41 0 -77 23 -91 30l19 23c17 -9 35 -20 52 -20c29 -1 38 20 38 33c0 31 -36 38 -55 42l3 43c-70 9 -98 57 -107 86c-7 22 -7 52 -8 57c0 10 0 16 -1 26v383c0 45 -4 103 53 145
c35 26 80 25 87 25c9 0 97 2 126 -78c7 -20 8 -58 8 -58v-99h-48v46c0 52 10 144 -85 144c-41 0 -93 -20 -93 -103v-355c0 -58 -13 -175 97 -175c85 0 87 73 87 95v113h50v-109z" />
    <glyph glyph-name="Aring" unicode="&#xc5;" horiz-adv-x="375" 
d="M253 814c0 -37 -30 -66 -66 -66c-8 0 -30 2 -47 19c-6 6 -19 22 -19 47c0 37 30 66 66 66c37 0 66 -30 66 -66zM349 0h-52l-36 215h-148l-37 -215h-52l129 710h68zM231 814c0 25 -20 44 -44 44c-25 0 -44 -20 -44 -44c0 -17 9 -28 13 -32c9 -8 19 -12 31 -12
c25 0 44 20 44 44zM252 261l-55 328c-4 22 -7 44 -10 66c-2 -21 -5 -41 -8 -61l-58 -333h131z" />
    <glyph glyph-name="Adieresis" unicode="&#xc4;" horiz-adv-x="375" 
d="M287 789h-52v76h52v-76zM139 789h-52v76h52v-76zM349 0h-52l-36 215h-148l-37 -215h-52l129 710h68zM252 261l-55 328c-4 22 -7 44 -10 66c-2 -21 -5 -41 -8 -61l-58 -333h131z" />
    <glyph glyph-name="Atilde" unicode="&#xc3;" horiz-adv-x="375" 
d="M299 842c-5 -8 -10 -16 -16 -23c-15 -20 -31 -39 -58 -39c-14 0 -34 9 -63 19c-2 1 -14 6 -24 6c-20 0 -32 -12 -44 -26l-15 13c17 26 39 55 74 55c15 0 28 -4 42 -10c12 -6 27 -14 41 -14c7 0 13 1 19 4c9 5 15 13 28 28zM349 0h-52l-36 215h-148l-37 -215h-52l129 710
h68zM252 261l-55 328c-4 22 -7 44 -10 66c-2 -21 -5 -41 -8 -61l-58 -333h131z" />
    <glyph glyph-name="Acircumflex" unicode="&#xc2;" horiz-adv-x="375" 
d="M285 770h-39l-59 68l-61 -69h-41l77 109h51zM349 0h-52l-36 215h-148l-37 -215h-52l129 710h68zM252 261l-55 328c-4 22 -7 44 -10 66c-2 -21 -5 -41 -8 -61l-58 -333h131z" />
    <glyph glyph-name="Aacute" unicode="&#xc1;" horiz-adv-x="375" 
d="M305 878l-142 -109h-36l84 109h94zM349 0h-52l-36 215h-148l-37 -215h-52l129 710h68zM252 261l-55 328c-4 22 -7 44 -10 66c-2 -21 -5 -41 -8 -61l-58 -333h131z" />
    <glyph glyph-name="Agrave" unicode="&#xc0;" horiz-adv-x="375" 
d="M245 771h-33l-152 109h97zM349 0h-52l-36 215h-148l-37 -215h-52l129 710h68zM252 261l-55 328c-4 22 -7 44 -10 66c-2 -21 -5 -41 -8 -61l-58 -333h131z" />
    <glyph glyph-name="mu" unicode="&#xb5;" horiz-adv-x="333" 
d="M310 -1h-5c-50 0 -63 9 -67 45c-22 -31 -50 -46 -85 -46c-28 0 -45 8 -61 27v-188h-42v666h42v-384c0 -54 24 -85 66 -85c37 0 58 17 78 65v404h42v-430c0 -29 3 -34 23 -34h9v-40z" />
    <glyph glyph-name="plusminus" unicode="&#xb1;" horiz-adv-x="559" 
d="M474 274h-173v-183h-42v183h-174v42h174v184l42 -1v-183h173v-42zM474 0h-389v42h389v-42z" />
    <glyph glyph-name="degree" unicode="&#xb0;" horiz-adv-x="354" 
d="M319 602c0 -79 -63 -142 -142 -142s-142 63 -142 142c0 78 64 142 142 142c79 0 142 -64 142 -142zM275 602c0 54 -44 97 -98 97c-53 0 -97 -44 -97 -97s43 -98 97 -98s98 44 98 98z" />
    <glyph glyph-name="registered" unicode="&#xae;" horiz-adv-x="833" 
d="M773 351c0 -199 -160 -354 -357 -354c-198 0 -355 158 -355 358c0 198 156 354 356 354c198 0 356 -156 356 -353v-5zM741 351c0 183 -142 326 -323 326s-325 -144 -325 -325c0 -179 145 -323 324 -323s324 144 324 322zM554 126h-56l-94 200h-36v-200h-51v449h70
c18 0 34 0 47 -1c28 -1 49 -7 65 -19c25 -19 39 -54 39 -101c0 -34 -9 -63 -24 -85c-14 -20 -28 -29 -58 -37zM486 452c0 30 -8 53 -21 64c-12 10 -28 13 -66 13h-31v-159h23c41 0 58 4 71 14c15 12 24 36 24 68z" />
    <glyph glyph-name="logicalnot" unicode="&#xac;" horiz-adv-x="559" 
d="M475 89h-45v185h-364v41h409v-226z" />
    <glyph glyph-name="copyright" unicode="&#xa9;" horiz-adv-x="833" 
d="M773 351c0 -199 -160 -354 -357 -354c-198 0 -355 158 -355 358c0 198 156 354 356 354c198 0 356 -156 356 -353v-5zM741 351c0 183 -142 326 -323 326s-325 -144 -325 -325c0 -179 145 -323 324 -323s324 144 324 322zM526 247c0 -64 -6 -84 -32 -105
c-18 -14 -49 -23 -82 -23c-35 0 -64 9 -84 27c-26 22 -32 44 -32 112v183c0 68 6 89 32 112c20 17 50 27 84 27c33 0 64 -9 82 -24c26 -21 32 -41 32 -104v-35h-49v34c0 39 -2 51 -11 62c-9 12 -29 19 -55 19c-24 0 -41 -6 -51 -17c-12 -12 -14 -24 -14 -65v-202
c0 -40 2 -52 14 -65c10 -11 27 -16 51 -16c26 0 46 7 55 19c9 10 11 23 11 61v39h49v-39z" />
    <glyph glyph-name="brokenbar" unicode="&#xa6;" horiz-adv-x="229" 
d="M136 308h-43v439h43v-439zM136 -250h-43v440h43v-440z" />
    <glyph glyph-name="threesuperior" unicode="&#xb3;" horiz-adv-x="229" 
d="M205 403c0 -66 0 -101 -36 -129c-18 -13 -38 -15 -55 -15c-101 0 -91 109 -91 119c0 11 1 18 1 28h36c0 -66 1 -112 54 -112c60 0 54 70 54 73v41c0 66 -41 72 -90 75v37c40 0 82 12 82 66v33c0 6 7 54 -41 54c-35 0 -41 -23 -42 -50l-1 -50h-36v45c0 20 -3 91 79 91
c20 0 36 -6 43 -10c29 -18 36 -37 36 -82c0 -67 -4 -92 -53 -114c42 -17 60 -37 60 -100z" />
    <glyph glyph-name="twosuperior" unicode="&#xb2;" horiz-adv-x="229" 
d="M195 265h-170v35c3 18 10 31 32 65c68 101 101 124 101 225v3c0 23 3 80 -43 80c-48 0 -44 -57 -44 -60v-54h-36v54c0 29 0 64 38 87c17 10 39 9 43 9c86 0 79 -94 79 -102c0 -35 -2 -70 -4 -80c-10 -54 -50 -106 -87 -160c-27 -38 -32 -44 -40 -67h131v-35z" />
    <glyph glyph-name="onesuperior" unicode="&#xb9;" horiz-adv-x="229" 
d="M146 265h-39v372c-16 -12 -32 -22 -64 -27v35c50 13 60 34 69 62h34v-442z" />
    <glyph glyph-name="threequarters" unicode="&#xbe;" horiz-adv-x="583" 
d="M583 132h-52v-132h-37v132h-123v43l113 266h47v-274h52v-35zM504 774l-368 -844l-24 11l366 845zM205 403c0 -66 0 -101 -36 -129c-18 -13 -38 -15 -55 -15c-101 0 -91 109 -91 119c0 11 1 18 1 28h36c0 -66 1 -112 54 -112c60 0 54 70 54 73v41c0 66 -41 72 -90 75v37
c40 0 82 12 82 66v33c0 6 7 54 -41 54c-35 0 -41 -23 -42 -50l-1 -50h-36v45c0 20 -3 91 79 91c20 0 36 -6 43 -10c29 -18 36 -37 36 -82c0 -67 -4 -92 -53 -114c42 -17 60 -37 60 -100zM494 167v221l-90 -221h90z" />
    <glyph glyph-name="onehalf" unicode="&#xbd;" horiz-adv-x="583" 
d="M550 0h-171v35c5 21 6 24 27 57c69 105 106 128 106 233v3c0 25 3 80 -43 80c-48 0 -44 -58 -44 -60v-54h-36v54c0 31 0 66 41 88c17 9 35 9 40 8c86 0 79 -93 79 -102c0 -107 -10 -126 -86 -233c-25 -35 -39 -54 -45 -74h132v-35zM474 774l-367 -844l-25 11l367 845z
M146 265h-39v372c-16 -12 -32 -22 -64 -27v35c50 13 60 34 69 62h34v-442z" />
    <glyph glyph-name="onequarter" unicode="&#xbc;" horiz-adv-x="583" 
d="M583 132h-52v-132h-37v132h-123v43l113 266h47v-274h52v-35zM483 774l-367 -844l-25 11l367 845zM146 265h-39v372c-16 -12 -32 -22 -64 -27v35c50 13 60 34 69 62h34v-442zM494 167v221l-90 -221h90z" />
    <glyph glyph-name="Euro" unicode="&#x20ac;" horiz-adv-x="386" 
d="M86 437v86c0 19 0 36 1 51c2 44 13 75 35 99c24 27 60 41 107 41c61 0 97 -17 129 -58l-16 -50c-32 46 -63 64 -112 64c-38 0 -68 -14 -81 -38c-12 -21 -17 -50 -17 -104v-91h179l-12 -38h-167v-51h158l-11 -38h-146v-100c0 -75 3 -99 13 -124c14 -35 43 -52 88 -52
c48 0 85 18 123 62v-63c-42 -32 -77 -44 -127 -44c-59 0 -100 21 -124 63c-15 26 -20 53 -20 108v150h-60l8 38h52v51h-60l8 38h52z" />
    </font>
</defs>
</svg>
